/* XPM */
static char *alien_droite1673968050[] = {
/* columns rows colors chars-per-pixel */
"64 64 201 2 ",
"   c None",
".  c #190D01",
"X  c #1C120A",
"o  c #1A1107",
"O  c #1F1913",
"+  c #290F02",
"@  c #22170D",
"#  c #26170D",
"$  c #34170A",
"%  c #241D16",
"&  c #291E14",
"*  c #241E1B",
"=  c #281C1A",
"-  c #361B11",
";  c #24211E",
":  c #29221B",
">  c #31251A",
",  c #3C231A",
"<  c #33291B",
"1  c #252324",
"2  c #2E2824",
"3  c #2E2523",
"4  c #352C26",
"5  c #392C23",
"6  c #322E2A",
"7  c #3B3125",
"8  c #3C342D",
"9  c #36302C",
"0  c #2D2A35",
"q  c #2F2D38",
"w  c #342E34",
"e  c #302F3D",
"r  c #3B3432",
"t  c #3D3834",
"y  c #3D3C3B",
"u  c #363437",
"i  c #481905",
"p  c #531D0B",
"a  c #531A05",
"s  c #6B1F07",
"d  c #5D230E",
"f  c #4A2215",
"g  c #462319",
"h  c #5E2512",
"j  c #5A2A1B",
"k  c #522416",
"l  c #59311E",
"z  c #692008",
"x  c #78240A",
"c  c #682E1B",
"v  c #752A15",
"b  c #442C22",
"n  c #4C2D26",
"m  c #412F28",
"M  c #552B20",
"N  c #42382D",
"B  c #47362B",
"V  c #422F31",
"C  c #453D36",
"Z  c #433E3B",
"A  c #4E3D38",
"S  c #7B3925",
"D  c #703D2D",
"F  c #683A28",
"G  c #4B4236",
"H  c #43403C",
"J  c #4C443C",
"K  c #4F493A",
"L  c #53483C",
"P  c #52453B",
"I  c #585039",
"U  c #6B4435",
"Y  c #65473A",
"T  c #353447",
"R  c #413C44",
"E  c #434241",
"W  c #4A4643",
"Q  c #4C4946",
"!  c #4D4C4B",
"~  c #4C424B",
"^  c #534C44",
"/  c #524E4D",
"(  c #584F46",
")  c #5A5147",
"_  c #55514D",
"`  c #5C544C",
"'  c #494658",
"]  c #555352",
"[  c #5A5654",
"{  c #5B5956",
"}  c #5C5B59",
"|  c #634D43",
" . c #67594A",
".. c #7A5547",
"X. c #634750",
"o. c #635D53",
"O. c #615E5A",
"+. c #6C5B53",
"@. c #7C5E55",
"#. c #696156",
"$. c #64615E",
"%. c #6A655C",
"&. c #71695D",
"*. c #77685D",
"=. c #696248",
"-. c #59586E",
";. c #5C5B78",
":. c #605668",
">. c #656361",
",. c #6A6661",
"<. c #6D6964",
"1. c #68686A",
"2. c #726D65",
"3. c #736E69",
"4. c #7C6D66",
"5. c #797265",
"6. c #76726C",
"7. c #7A746C",
"8. c #7A746A",
"9. c #676479",
"0. c #696579",
"q. c #777273",
"w. c #7B7772",
"e. c #7D7972",
"r. c #7F7D79",
"t. c #8C290D",
"y. c #9B371B",
"u. c #AA3C1D",
"i. c #853924",
"p. c #8A3E28",
"a. c #943A20",
"s. c #AB3F22",
"d. c #86432E",
"f. c #8B4733",
"g. c #AB4024",
"h. c #B94729",
"j. c #B25136",
"k. c #C94D2B",
"l. c #99584A",
"z. c #95604E",
"x. c #8B6B5C",
"c. c #886355",
"v. c #906353",
"b. c #936B5E",
"n. c #867A6C",
"m. c #9E7669",
"M. c #837D74",
"N. c #817F7B",
"B. c #9B7C71",
"V. c #A67466",
"C. c #DC7A5E",
"Z. c #C77058",
"A. c #C27A65",
"S. c #878076",
"D. c #898275",
"F. c #86817A",
"G. c #8B857B",
"H. c #8F897F",
"J. c #928A7D",
"K. c #9A837B",
"L. c #A2837A",
"P. c #606287",
"I. c #797995",
"U. c #8C8885",
"Y. c #8A8685",
"T. c #958D81",
"R. c #918C89",
"E. c #979085",
"W. c #9A9385",
"Q. c #96928B",
"!. c #9C958B",
"~. c #9E988D",
"^. c #949392",
"/. c #9C9C9B",
"(. c #9A9395",
"). c #878395",
"_. c #A18A83",
"`. c #A29A8C",
"'. c #A49D91",
"]. c #A89F92",
"[. c #BA9F94",
"{. c #ABA18F",
"}. c #ABA394",
"|. c #A6A29D",
" X c #ACA69B",
".X c #A7A093",
"XX c #B4A89A",
"oX c #BBB19F",
"OX c #AAA9A8",
"+X c #B5ADA2",
"@X c #BBB3A5",
"#X c #BBB6AB",
"$X c #BCB9B4",
"%X c #B4B4B4",
"&X c #C0A89F",
"*X c #C4BAAB",
"=X c #C6BEB0",
"-X c #C9C3B9",
";X c #D4CEC1",
":X c #DAD4C9",
">X c gray79",
/* pixels */
"                                                                                                                                ",
"                                                                                                                                ",
"                                                                                                                                ",
"                                                                                                                                ",
"                                                                                                                                ",
"                                                                                                                                ",
"                                                                                                                                ",
"                                                                                                                                ",
"                                                                                                                                ",
"                                                                                                                                ",
"                                                                                                                                ",
"                                                                                                                                ",
"                                                                                                                                ",
"                                                              Q Q Q Q Q Q Q Q                                                   ",
"                                                          y <.W.7.$.>.>.>.>.$.y                                                 ",
"                                                        H W.`.6.'.*X-X:X:X;X*XS.O.                                              ",
"                                                        { J.M.{.#X( V R W C r C _                                               ",
"                                                        / e.~.}.O.0 T -.P.q T q r                                               ",
"                                                        W E.}.$.0 :.n 5 r b : ' J                                               ",
"                                                        W .XS.w ).f c 4.c.+Xg ' ]                                               ",
"                                                        ~ '.O.T R N v.z.m.+X|.r 1.                                              ",
"                                                        E 3.J R R Y [.v.z d._.r q.                                              ",
"                                                1./.{   Q '.&.R R +.U U i S K.$ &.                                              ",
"                                          y OXA > r.-XU ..e.u ;.p c x.l i j v.3 R.                                              ",
"                                          >.>X(.d.7 | k P ,.4 q v i c.F p f...w (.                                              ",
"                                          H ^./.p.$ j g 4 %.J 1 V A U i.p.L.h w Y.                                              ",
"                                        %.C 2 (...k f 8.J L M.4 ;.).n v g.l.0.:.2.                                              ",
"                                        I.U.; W i.v Y .X7.P %.o.w I.;.f g.X.0.<.                                                ",
"                                        Z OXV.s.t.+ n.].XX` @ 8.D.U.^.x.j.K.`.^ C                                               ",
"                                      ^.C _ D h.z L `.'.!.w.C & H } S.x.h.n.A ( #X_                                             ",
"                                      (.>.2 > x $ n.`.+X`.E.J 3 X : 6 n g.m 5 J. XQ                                             ",
"                                      >.%X} S x + J.`.`.!.C 5.-Xy : * g s., 4 J.} ,.Q                                           ",
"                                        q.m.h.x . G.T.E.K ; F.$X{ w.y n g.A * [ = }.#.                                          ",
"                                        J f.k.s o J #.8 X % U.G.{ 6.,. .j. X^ = . !.<.                                          ",
"                                      1.+.a.t.a % 1 % O @ * U.OX6.E.F.6.K.,.X . o ^ Q                                           ",
"                                      ,.$Xb.s # % 1 ; G _ 7 Q.|.}.E.e.E.|.Q   % ; J                                             ",
"                                        %XB.i G : ; @ n.( N F.%.T.M.{ N.N.    Z 1 q.Q                                           ",
"                                        ^ ..a &.B & 5.E.G _ >.>.`.G.7.Y.r.    _ 3.$.y                                           ",
"                                            7 5.G K ~.8.& ] E.}..X~.`.`.w.    Q } ! y                                           ",
"                                              5.D.`.W.^ r 8.@XoX`.D.r.|.        ! ! !                                           ",
"                                              8.7.J.J.7 ^  X-XXX`.8.F. X        ! Z t                                           ",
"                                              5.!.S.M.4 3.*X*X].W.e.S.R.                                                        ",
"                                              2.J.M.D.r 6.W..XE.<.$.$.}           J [ K                                         ",
"                                              o.K ) 4.7 ,.6.M.7.$.} q.6.            G _                                         ",
"                                                2.R 7 ; C } ] ] } ~.;X%XH         . . X                                         ",
"                                              ] `.'.c.i.C T E <.{ r.@X;Xe.      . o . X                                         ",
"                                              @.A.n.d.h.k     ] S.,.H.@Xr.      .   . X                                         ",
"                                            M Z.C.j.c y.k       ,.G.G. Xr.          . X                                         ",
"                                            j d.Z.k.p +         Z N. X*Xr.          o                                           ",
"                                            J N , u.h o           { T.-Xr.        . o                                           ",
"                                            o.W.( y.p o         X ! G.@Xr.                                                      ",
"                                              #.: -               E J %.{                                                       ",
"                                          y &.6 w M.]           7 6 ^ ].J.                                                      ",
"                                            >.{ !.+X}.t         C } W.}.`.                                                      ",
"                                          [ { ] `.{.{.y         Z / D.`.J.                                                      ",
"                                          T.T.$.J.`.o.          >.[ %.!.D.                                                      ",
"                                        _ 6.G.S.3.%.            7.2.[ <.Q                                                       ",
"                                        %.<.$.S.>.!             3.2.$.]                                                         ",
"                                        <.G.e.5.3.            H 3.3.3.}                                                         ",
"                                          L D.o.<                 n.J.N                                                         ",
"                                          . . . .               . . . .                                                         ",
"                                            < . .               . . . .                                                         ",
"                                            =.B                 . . & 7                                                         ",
"                                          J ` =.^               . . < K I                                                       "
};
