/* XPM */
static char *angle_bas_droit1673881061[] = {
/* columns rows colors chars-per-pixel */
"64 64 100 2 ",
"   c #020202",
".  c #4C5354",
"X  c #3E4546",
"o  c #3D4445",
"O  c #4B5254",
"+  c #4A5153",
"@  c #4A5052",
"#  c #495052",
"$  c #4A5154",
"%  c #61777C",
"&  c gray1",
"*  c #040404",
"=  c #181817",
"-  c #2C2D2B",
";  c #2B2C2A",
":  c #2A2B29",
">  c #1F201F",
",  c #62797D",
"<  c #474E50",
"1  c #383F40",
"2  c #464D4F",
"3  c #383E3F",
"4  c #3E3236",
"5  c #474E51",
"6  c #5F757A",
"7  c black",
"8  c #010101",
"9  c #141413",
"0  c #151514",
"q  c #1C1C1B",
"w  c #131312",
"e  c #536164",
"r  c #464D4E",
"t  c #383F41",
"y  c #464C4E",
"u  c #161716",
"i  c #61787C",
"p  c #454C4E",
"a  c #292A28",
"s  c #282927",
"d  c #292928",
"f  c #1E1F1E",
"g  c #61787D",
"h  c #1C1D1B",
"j  c #382C30",
"k  c #030404",
"l  c #382B2F",
"z  c #454C4D",
"x  c #36231E",
"c  c #394041",
"v  c #444B4D",
"b  c #020303",
"n  c #35221D",
"m  c #526164",
"M  c #3D3135",
"N  c #394142",
"B  c #1E1E1E",
"V  c #392D31",
"C  c #383E40",
"Z  c #394042",
"A  c #5F767B",
"S  c #010100",
"D  c #60767B",
"F  c #1E1E1D",
"G  c #3D3034",
"H  c #34211C",
"J  c #393F41",
"K  c #536265",
"L  c #161615",
"P  c #5F767A",
"I  c #131313",
"U  c #3C2F33",
"Y  c #1D1E1D",
"T  c #33201C",
"R  c #60777B",
"E  c #60777C",
"W  c #151615",
"Q  c #464E50",
"!  c #464C4F",
"~  c #010202",
"^  c #3B2E32",
"/  c #1D1D1D",
"(  c #1D1D1C",
")  c #62787D",
"_  c #382C2F",
"`  c #010102",
"'  c #171716",
"]  c #3A2D31",
"[  c #383F3F",
"{  c #311F1A",
"}  c #311E19",
"|  c #62797E",
" . c #301D18",
".. c #392C30",
"X. c #464D50",
"o. c #384041",
"O. c #2F1C17",
"+. c #301D19",
"@. c #2F1D18",
"#. c #2F1C18",
/* pixels */
"  . X X X X X o O o O O O O O + + + + + + + @ @ @ @ @ @ @ @ # # # # # # $ % & * = - - - - ; ; ; ; ; ; ; ; : : > , < < < 1 2 3 4 ",
"2 2 1 1 1 1 1 1 2 1 2 2 2 2 2 2 2 2 2 2 2 2 2 2 2 2 2 2 2 2 2 2 2 2 2 2 5 6 7 8 9 0 q q q q q q q q q q q q w & e 2 2 2 r t y 4 ",
"1 1 1 1 1 1 1 1 2 1 2 2 2 2 2 2 2 2 2 2 2 2 2 2 2 2 2 2 2 2 2 2 2 2 2 2 < 6 7 8 9 q q q q q q q q q q q q q q u i 2 2 2 2 2 3 4 ",
"2 p 1 1 1 1 1 1 2 1 2 2 2 2 2 2 2 2 2 2 2 2 2 2 2 2 2 2 2 2 2 2 2 2 2 2 < 6 7 8 q a a a a a a a a s q d q d q f g 2 2 1 1 2 y 4 ",
"1 1 1 1 1 1 1 1 2 1 2 2 2 2 2 2 2 2 2 2 2 2 2 2 2 2 2 2 2 2 2 2 2 2 2 2 < 6 7 8 0 a a a a a a a a a a a d h a f g 2 < % 3 j y 4 ",
"p p 1 1 1 1 1 1 2 1 2 2 2 2 2 2 2 2 2 2 2 2 2 2 2 2 2 2 2 2 2 2 2 2 2 2 < 6 7 7 7 7 7 8 9 8 9 8 9 9 9 9 8 w 7 k g 2 2 y l j z x ",
"2 2 1 1 1 1 1 1 2 1 2 2 2 2 2 2 2 2 2 2 2 2 c 2 2 2 2 2 2 2 2 2 2 2 2 2 2 v 7 8 9 9 9 9 q 9 q q q q 9 q 9 9 w b e 2 2 2 2 2 y 4 ",
"2 2 1 1 1 1 1 1 2 1 2 2 2 2 2 2 2 2 2 2 2 2 p c 2 2 2 2 2 2 2 2 2 2 2 2 < 6 7 8 q a a a a a a a a a a a q d q f % 1 2 2 2 2 z n ",
"2 2 1 1 1 1 1 1 2 1 2 2 2 2 2 2 2 2 2 c 2 2 2 c m 2 2 2 2 2 2 2 2 2 2 2 2 v 7 8 0 a a a a a a a a a a a a a a f g 2 1 2 2 2 y M ",
"1 1 1 1 1 1 1 1 1 1 2 2 2 2 2 c 2 2 2 p c 2 2 p c 2 2 2 2 2 2 2 2 2 2 2 < 6 7 8 9 9 q q q q q q q q q q q q 9 k g 2 2 2 2 2 z n ",
"2 2 2 2 2 2 2 2 2 2 2 2 2 2 2 p c m 2 2 c m 2 2 c m 2 2 2 2 2 2 2 2 2 2 2 v 7 8 9 q q q q q q q q q q q q q q u g 2 2 2 2 2 z n ",
"2 2 2 2 2 2 2 2 2 2 2 2 2 2 2 2 p N m 2 p c 2 2 1 c 2 2 2 2 2 2 2 2 2 2 < 6 7 8 q a a a a a a a a a a a q a q B g 2 2 1 1 2 z n ",
"2 2 2 2 2 2 2 2 2 2 2 2 2 2 2 2 2 1 c 2 y V m 2 p V m 2 2 2 2 2 2 2 2 2 2 p 7 8 0 a a a a a a a a a a a a q a B g 2 < % C j p n ",
"2 2 2 2 2 2 2 2 2 2 2 2 2 2 2 2 2 p V m 2 1 c 2 2 c % 2 2 2 2 2 2 2 2 2 < 6 7 7 7 7 7 8 9 8 9 8 9 9 9 9 8 9 7 & % 1 2 y l j p n ",
"2 2 2 2 2 2 2 2 2 2 2 2 2 2 2 2 2 2 1 c 2 p V m 2 1 Z 2 2 2 2 2 2 2 2 2 < A 7 S 9 9 9 9 q 9 q q q q 9 q 9 9 w & g 2 1 2 2 2 p n ",
"2 2 2 2 2 2 2 2 2 2 2 2 2 2 2 2 2 2 p V m 2 c % 2 p V m 2 2 2 2 2 2 2 2 < D 7 8 q a a a a a a a a a a a q a q F i 1 2 1 2 2 y G ",
"2 2 2 2 2 2 2 2 2 2 2 2 2 2 2 2 2 2 2 c % 2 1 N 2 y V % 2 2 2 2 2 2 2 2 2 p 7 7 0 a a a a a a a a a a a a a a F g 2 2 2 1 1 p H ",
"2 2 2 2 2 2 2 2 2 2 2 2 2 2 2 2 2 2 2 1 N 2 p V m 2 J K 2 2 2 2 2 2 2 2 < 6 7 7 9 9 q q q q q q q q q q q q 9 b g 2 2 2 2 1 1 G ",
"2 2 2 2 2 2 2 2 2 2 2 2 2 2 2 2 2 2 2 p V m 2 c i 2 1 c 2 2 2 2 2 2 2 2 2 p 7 7 9 q q q q q q q q q q q q q q L g 2 2 2 2 2 p H ",
"2 2 2 2 2 2 2 2 2 2 2 2 2 2 2 2 2 2 2 2 c % 2 1 Z 2 p V m 2 2 2 2 2 2 2 < P 7 8 q a a a a a a a a a q a q a q F g 2 2 1 1 2 y G ",
"2 2 2 2 2 2 2 2 2 2 2 2 2 2 2 2 2 2 2 2 1 N 2 p V m y V i 2 2 2 2 2 2 2 2 p 7 7 0 a a a a a a a a a a a a q a F g 2 < i 1 j y G ",
"2 2 2 2 2 2 2 2 2 2 2 2 2 2 2 2 2 2 2 2 p V m 2 c i 2 c g 2 2 2 2 2 2 2 < A 7 7 7 7 7 8 9 8 9 8 9 9 9 9 8 9 7 b g 2 2 y l j p H ",
"2 2 2 2 2 2 2 2 2 2 2 2 2 2 2 2 2 2 2 2 2 c i 2 c g 2 2 K 2 2 2 2 2 2 2 < D 7 7 9 9 9 9 q 9 q q q q 9 q 9 9 I b g 1 2 2 2 2 y U ",
"2 2 2 2 2 2 2 2 2 2 2 2 2 2 2 2 2 2 2 2 2 c K 2 2 K 2 2 2 2 2 2 2 2 2 2 < D 7 8 q a a a a a a a a a a a q a q Y g 2 1 2 2 2 y T ",
"2 2 2 2 2 2 2 2 2 2 2 2 2 2 2 2 2 2 2 2 2 2 2 2 2 2 2 2 2 2 2 2 2 2 2 2 < R 7 7 0 a a a a a a a a a a a a a a Y g 1 2 1 2 2 y U ",
"2 2 2 2 2 2 2 2 2 2 2 2 2 2 2 2 2 2 2 2 2 2 2 2 2 2 2 2 2 2 2 2 2 2 2 2 < R 7 7 9 9 q q q q q q q q q q q q 9 b g 2 2 2 2 2 y U ",
"2 2 2 2 2 2 2 2 2 2 2 2 2 2 2 2 2 2 2 2 2 2 2 2 2 2 2 2 2 2 2 2 2 2 2 2 < E 7 7 9 q q q q q q q q q q q q q q W g 2 2 2 2 2 y U ",
"2 2 2 2 2 2 2 2 2 2 2 2 2 2 2 2 2 2 2 2 2 2 2 2 2 2 2 2 2 2 2 2 2 2 2 2 < E 7 8 q a a a a a a a a a a a q a q Y g 2 2 1 1 2 1 U ",
"2 2 2 2 2 2 2 2 2 2 2 2 2 2 2 2 2 2 2 2 2 2 2 2 2 2 2 2 2 2 2 2 2 2 2 2 2 p 7 7 9 a a a a a a a a a a a a q a Y g 2 < g 1 j y U ",
"2 2 2 2 2 2 2 2 2 2 2 2 2 2 2 2 2 2 2 2 2 2 2 2 2 2 2 2 2 2 2 2 2 2 2 2 Q D 7 7 7 7 7 8 9 8 9 8 9 9 9 9 8 9 7   g 2 2 ! l j y U ",
"2 2 2 2 2 2 2 2 2 2 2 2 2 2 2 2 2 2 2 2 2 2 2 2 2 2 2 2 2 2 2 2 2 2 2 2 Q E 7 7 9 9 9 9 q 9 q q q q 9 q 9 9 9 ~ K 2 2 2 2 2 y ^ ",
"2 2 2 2 2 2 2 2 2 2 2 2 2 2 2 2 2 2 2 2 2 2 2 2 2 2 2 2 2 2 2 2 2 2 2 2 Q E 7 7 q a a a a a a a a a a a q a q / g 2 2 2 2 2 y ^ ",
"2 2 2 2 2 2 2 2 2 2 2 2 2 2 2 2 2 2 2 2 2 2 2 2 2 2 2 2 2 2 2 2 2 2 2 2 Q E 7 7 9 a a a a a a a a a a a a a a ( K 2 2 2 2 2 p = ",
"Q 2 2 2 2 2 2 2 2 2 2 2 2 2 2 2 2 2 2 2 2 2 2 2 2 2 2 2 2 2 2 2 2 2 2 2 2 p 7 7 9 9 q q q q q q q q q q q q 9   ) 2 2 2 2 2 y ^ ",
"p 2 2 2 2 2 2 2 2 2 2 2 2 2 2 2 2 2 2 2 2 2 2 2 2 2 2 2 2 2 2 2 2 2 2 2 Q R 7 7 9 q q q q q q q q q q q q q q 0 K 2 2 2 2 2 p = ",
"Q 2 2 2 2 2 2 2 2 2 2 2 2 2 2 2 2 2 2 2 2 2 2 2 2 2 2 2 2 2 2 2 2 2 2 2 2 p 7 7 q a a a a a a a a a q a q a q ( ) 2 2 1 1 2 p = ",
"p 2 2 2 2 2 2 2 2 2 2 2 2 2 2 2 2 2 2 2 2 2 2 2 2 2 2 2 2 2 2 2 2 2 2 2 Q E 7 7 9 a a a a a a a a a a a a q a ( K 2 Q g 1 _ p = ",
"g g g g g g g g g g g g g g g g g g g g g g g g g g g Q g Q ) ) ) g Q ) ) % 7 7 7 7 7 8 9 8 9 8 9 9 9 9 S 9 7 ` K 2 2 2 l l p ' ",
"7 7 7 7 7 7 7 7 7 7 7 7 7 7 7 7 7 7 7 7 7 7 7 7 7 7 7 7 7 7 7 7 7 7 7 7 7 7 7 a a 9 7 a a q q a a 9 7 a a q q a K 1 2 2 2 2 2 ] ",
"7 7 7 7 7 7 7 7 7 7 7 7 7 7 7 7 7 7 7 7 7 7 7 7 7 7 7 7 7 7 7 7 7 7 7 7 7 7 7 a a 9 7 a a q q a a 9 7 a a q q a K 2 1 2 1 2 p ' ",
"q 9 7 9 q 9 9 9 q 9 7 9 q 9 9 9 q 9 7 9 q 9 9 9 q 9 7 9 q 9 9 9 q 9 7 9 q 9 9 a a q 9 a a q q a a q 9 a a q q a K 2 1 1 2 1 2 ] ",
"a 9 7 a a q 9 a a 9 7 a a q 9 a a 9 7 a a q 9 a a 9 7 a a q 9 a a 9 7 a a q 9 a a 9 7 a a q q a a 9 7 a a q q a K 2 2 2 1 2 [ ' ",
"a 9 7 a a q q a a 9 7 a a q q a a 9 7 a a q q a a 9 7 a a q q a a 9 7 a a q q a a q 9 a a q q a a q 9 a a q q a ) 2 2 2 2 2 2 ] ",
"a 9 7 a a q q a a 9 7 a a q q a a 9 7 a a q q a a 9 7 a a q q a a 9 7 a a q q a a q 7 a a q q a a q 7 a a q q a K 2 2 1 1 2 y { ",
"a q 9 a a q q a a q 9 a a q q a a q 9 a a q q a a q 9 a a q q a a q 9 a a q q a a q 9 a a q q a a q 9 a a q q a ) 2 2 g 1 l 2 ] ",
"a 9 7 a a q q a a 9 7 a a q q a a 9 7 a a q q a a 9 7 a a q q a a 9 7 a a q q a a 9 7 a a q q a a 9 7 a a q q a K 2 2 2 l l r } ",
"a q 9 a a q q a a q 9 a a q q a a q 9 a a q q a a q 9 a a q q a a q 9 a a q q a a q 9 a a q q a a q 9 a a q q a , 2 2 2 2 2 2 ] ",
"a q 7 a a q q a a q 7 a a q q a a q 7 a a q q a a q 7 a a q q a a q 7 a a q q a a q 7 a a q q a a q 7 a a q q a K 2 2 2 2 2 2 ] ",
"a q 9 a a q q a a q 9 a a q q a a q 9 a a q q a a q 9 a a q q a a q 9 a a q q a a q 9 a a q q a a q 9 a a q q a | 2 2 2 2 2 2 ] ",
"a q 9 a a q q a a q 9 a a q q a a q 9 a a q q a a q 9 a a q q a a q 9 a a q q a a q 9 a a q q a a q 9 a a q q a K 2 2 2 2 2 2 ] ",
"a 9 9 a q q q a a 9 9 a a q q a a 9 9 a q q q a a 9 9 a a q q a a 9 9 a q q q a a 9 9 a a q q a a 9 9 a q q q a | 2 2 2 2 2 2 ] ",
"a q 9 a a q q a a q 9 a a q q a a q 9 a a q q a a q 9 a a q q a a q 9 a a q q a a q 9 a a q q a a q 9 a a q q a | 2 2 1 1 2 2 ] ",
"q 9 7 a q q q a q 9 7 a q q q a q 9 7 a q q q a q 9 7 a q q q a q 9 7 a q q q a q 9 7 a q q q a q 9 7 a q q q a | 2 2 , 1 l 2 ] ",
"a 9 9 q a q q a a 9 9 q a q q a a 9 9 q a q q a a 9 9 q a q q a a 9 9 q a q q a a 9 9 q a q q a a 9 9 q a q q a | 2 2 2 l l 2  .",
"q 9 7 a q q 9 a q 9 7 a q q 9 a q 9 7 a q q 9 a q 9 7 a q q 9 a q 9 7 a q q 9 a q 9 7 a q q 9 a q 9 7 a q q 9 a K 2 2 2 2 2 2 ..",
"q 7 7 q q 9 7 q q 7 7 q q 9 7 q q 7 7 q q 9 7 q q 7 7 q q 9 7 q q 7 7 q q 9 7 q q 7 7 q q 9 7 q q 7 7 q q 9 7 q | 1 2 2 2 2 2  .",
"m % m E m i m % g g g i g g g g g g g g g g g g ) ) ) ) | | K | | | | K | | g g g g g g ) ) ) ) | | K | | | | K | 2 1 2 2 2 2 ..",
"< N Q < < < < Q < X.< 2 < 2 < 2 2 2 c 2 2 Q 2 Q 2 Q 2 Q Q Q Q X.c 2 o.2 2 2 2 2 2 t 2 1 2 2 2 2 2 1 2 2 2 2 2 2 2 2 2 2 2 2 2  .",
"1 2 2 2 2 2 2 2 2 2 2 2 2 2 2 2 1 1 2 2 2 2 2 2 2 2 2 2 2 2 2 2 2 1 2 2 2 2 2 2 2 2 1 2 2 2 2 2 1 2 2 2 2 2 2 2 2 2 2 2 2 2 2  .",
"2 2 2 2 g 1 2 2 2 2 2 2 g 1 2 2 1 2 2 2 g 1 2 2 2 2 2 2 ) 1 2 2 1 2 2 2 ) 1 2 2 2 1 2 2 | 1 2 2 2 2 2 2 | 1 2 2 2 2 2 1 1 2 2  .",
"2 2 2 j Z 1 2 2 2 2 2 j c 1 2 1 2 1 2 j c 1 2 2 2 2 2 _ c 1 2 2 2 2 2 l o.1 2 2 1 2 2 l 1 1 2 2 2 2 2 l 1 1 2 2 1 2 2 | 1 l 2 O.",
"2 2 2 l _ 2 2 2 2 2 2 l l 2 2 2 1 2 2 l l 2 2 2 2 2 2 l l 2 2 2 2 2 2 l l 2 2 1 1 2 2 l l 2 2 2 2 2 2 l l 2 2 1 2 2 2 2 l l 2 O.",
"2 2 2 y y 2 2 2 2 2 2 y y 2 2 1 2 2 2 y y 2 2 2 2 2 2 2 2 1 2 2 2 2 2 2 2 2 2 1 2 2 2 2 2 2 2 2 2 2 2 2 2 2 1 2 1 2 1 2 2 2 2 O.",
"j +.j  .j j j j j j j  .j @.j 0 j 0 j 0 0 0 0 j 0 _ l l l l l l l @.l @.l l #.l O.l O.O.O.O.O.O.l O.l O.l l l l l O.l l l l l l "
};
