/* XPM */
static char *angle_bas_gauche1673881061[] = {
/* columns rows colors chars-per-pixel */
"64 64 100 2 ",
"   c #382C30",
".  c #464D4F",
"X  c #383F40",
"o  c #474E50",
"O  c #526164",
"+  c #1C1C1B",
"@  c #292A28",
"#  c black",
"$  c #61787D",
"%  c #454C4E",
"&  c #464E50",
"*  c #020202",
"=  c #301D19",
"-  c #394142",
";  c #61777C",
":  c #141413",
">  c #4C5354",
",  c #3E4546",
"<  c #301D18",
"1  c #464C4E",
"2  c #382B2F",
"3  c #60777C",
"4  c #382C2F",
"5  c #394042",
"6  c #61787C",
"7  c #3D4445",
"8  c #4B5254",
"9  c #464D50",
"0  c #394041",
"q  c #2F1D18",
"w  c #151514",
"e  c #4A5153",
"r  c #392D31",
"t  c #536265",
"y  c #4A5052",
"u  c #62787D",
"i  c #393F41",
"p  c #62797E",
"a  c #495052",
"s  c #384041",
"d  c #474E51",
"f  c #4A5154",
"g  c #60777B",
"h  c #60767B",
"j  c #5F767B",
"k  c #5F767A",
"l  c #5F757A",
"z  c #444B4D",
"x  c #2F1C18",
"c  c gray1",
"v  c #010101",
"b  c #010100",
"n  c #040404",
"m  c #2F1C17",
"M  c #181817",
"N  c #383F41",
"B  c #2C2D2B",
"V  c #2B2C2A",
"C  c #282927",
"Z  c #292928",
"A  c #131312",
"S  c #1C1D1B",
"D  c #2A2B29",
"F  c #131313",
"G  c #010102",
"H  c #1D1D1C",
"J  c #1D1D1D",
"K  c #010202",
"L  c #1D1E1D",
"P  c #151615",
"I  c #020303",
"U  c #1E1E1D",
"Y  c #161615",
"T  c #1E1E1E",
"R  c #161716",
"E  c #030404",
"W  c #1E1F1E",
"Q  c #1F201F",
"!  c #62797D",
"~  c #536164",
"^  c #464C4F",
"/  c #383E40",
"(  c #383E3F",
")  c #464D4E",
"_  c #383F3F",
"`  c #454C4D",
"'  c #392C30",
"]  c #3A2D31",
"[  c #311E19",
"{  c #311F1A",
"}  c #171716",
"|  c #3B2E32",
" . c #3C2F33",
".. c #33201C",
"X. c #34211C",
"o. c #3D3034",
"O. c #35221D",
"+. c #3D3135",
"@. c #3E3236",
"#. c #36231E",
/* pixels */
"  . . . . X o O + + @ + @ @ @ @ @ @ @ @ @ @ @ + # # $ % & % & . . . . . . . . . . . . . . . . . . . . . . . X . . . % X . X . * ",
"= . . . . . - ; # : : : + : + + + + : + : : : : # # $ . . . . . . . . . . . . . . . . . . . . . . . . . . . X . . . % X % X . > ",
"  . . . . . & O # # : # : : : : # : # : # # # # # # $ . . . . . . . . . . . . . . . . . . . . . . . . . . . X X X X X X X X X , ",
"< 1 2   . . o 3 + @ + @ @ @ @ @ @ @ @ @ @ @ @ : # # $ . . . . . . . . . . . . . . . . . . . . . . . . . . . X X X X X X X X X , ",
"  1 4 5 $ . o O + + @ + @ + @ @ @ @ @ @ @ @ @ + # # $ . . . . . . . . . . . . . . . . . . . . . . . . . . . X X X X X X X X X , ",
"  . . X X . o 6 : + + + + + + + + + + + + + + : # # $ . . . . . . . . . . . . . . . . . . . . . . . . . . . X X X X X X X X X , ",
"  . . . . . o O # : + + + + + + + + + + + + : : # # $ . . . . . . . . . . . . . . . . . . . . . . . . . . . X X X X X X X X X , ",
"  . . . . . & ; + @ @ @ @ @ @ @ @ @ @ @ @ @ @ : # # $ . . . . . . . . . . . . . . . . . . . . . . . . . . . X X X X X X X X X 7 ",
"  . . . . . o $ + + @ + @ @ @ @ @ @ @ @ @ @ @ + # # $ . . . . . . . . . . . . . . . . . . . . . . . . . . . X . . . . . . . . 8 ",
"  . . . . . 9 $ # : : : + : + + + + : + : : : : # # $ . . . . . . . . . . . . . . . . . . . . . . . . . . . X X X X X X X X X 7 ",
"  . . . . . o $ # # : # : : : : # : # : # # # # # # $ . . . . . . . . . . . . . . . . . . . . . . . . . . . . . . . . . . . . 8 ",
"< 1 2   . . . 6 + @ + @ @ @ @ @ @ @ @ @ @ @ @ : # # $ . . . . . . . . . . . . . . . . . . . . . . . . . . . . . . . . . . . . 8 ",
"  1 2 0 $ . o $ + + @ + @ @ @ @ @ @ @ @ @ @ @ + # # $ . . . . . . . . . . . . . . . . . . . . . . . . . . . . . . . . . . . . 8 ",
"q . . X X . . $ : + + + + + + + + + + + + + + : # # $ . . . . . . . . . . . . . . . . . . . . . . . . . . . . . . . . . . . . 8 ",
"  . . . . . o $ # : + + + + + + + + + + + + : : # # $ . . . . . . . . . . . . . . . . . . . . . . . . . . . . . . . . . . . . 8 ",
"w X . X . . . $ + @ @ @ @ @ @ @ @ @ @ @ @ @ @ : # # $ . . . . . . . . . . . . . . . . . . . . . . . . . . % 0 . . . . . . . . e ",
"  . X . X X . $ + + @ + @ @ @ @ @ @ @ @ @ @ @ + # # $ . . . . . . . . . . . . . . . . . . . . . . . . . % 0 . . . . . . . . . e ",
"w . . X . X . $ # : : : + : + + + + : + : : : : # # $ . . . . . . . . . . . . . . . . . . . . . . . % X - O . . . . . . . . . e ",
"  . . . . . 0 $ # # : # : : : : # : # : # # # # # # $ . . . . . . . . . . . . . . . . . . . . . % X r 0 O . . . . . . . . . . e ",
"w 1 2   . . . $ + @ + @ @ @ @ @ @ @ @ @ @ @ @ : # # $ . . . . . . . . . . . . . . . . . . % X 0 r 0 O . . . % 0 . . . . . . . e ",
"w 1 2 0 $ . . $ + + @ + @ + @ @ @ @ @ @ @ @ @ + # # $ . . . . . . . . . . . . . . . % X 0 r - ; O . . 1 % 0 0 . . . . . . . . e ",
"w . . X X . & $ : + + + + + + + + + + + + + + : # # $ . . . . . . . . . . . . . 0 0 r - ; O . . . % X r 0 O . . . . . . . . . e ",
"w . . . . . . $ # : + + + + + + + + + + + + : : # # $ . . . . . . . . . . . . . t 6 O . . . % X 0 r 0 O . . . . % 0 . . . . . y ",
"  . . . . . & $ + @ @ @ @ @ @ @ @ @ @ @ @ @ @ : # # $ . . . . . . . . . . . . . . . . % X 0 r - ; O . . . . % 0 0 . . . . . . y ",
"w . . . . . . u + + @ + @ @ @ @ @ @ @ @ @ @ @ + # # $ . . . . . . . . . . . . . . 0 0 r 5 6 O . . . . % X 0 0 O . . . . . . . y ",
"4 . . . . . & u # : : : + : + + + + : + : : : : # # $ . . . . . . . . . . . . . t $ 6 O . . . 1 % X 0 r 0 O . . . . . . . . . y ",
"2 . . . . . . u # # : # : : : : # : # : # # # # # # $ . . . . . . . . . . . . . . . . 1 % X i r r 5 ; O . . . . . . . . . . . y ",
"2 . 2 4 . . & u + @ + @ @ @ @ @ @ @ @ @ @ @ @ : # # & . . . . . . . . . . . . . . . 0 r r 0 t ; O . . . . . . . . . . . . . . y ",
"2 . 2 0 u . & p + + @ + @ @ @ @ @ @ @ @ @ @ @ + # # $ . . . . . . . . . . . . . . t $ 6 O . . . . . . . . . . . . . . . . . . y ",
"2 X . X X . & p : + + + + + + + + + + + + + + : # # & . . . . . . . . . . . . . . . . . . . . . . . . . . . . . . . . . . . . y ",
"2 . . . . . & t # : + + + + + + + + + + + + : : # # u . . . . . . . . . . . . . . . . . . . . . . . . . . . . . . . . . . . . a ",
"2 . . . . . 9 p + @ @ @ @ @ @ @ @ @ @ @ @ @ @ : # # u . . . . . . . . . . . . . . . . . . . . . . . . . . . . . . . . . . . . a ",
"2 . . . X . 0 p + + @ + @ @ @ @ @ @ @ @ @ @ @ + # # u . . . . . . . . . . . . . . . . . . . . . . . . . . . . . . . . . . . . a ",
"q . . . . X . p # : : : + : + + + + : + : : : : # # $ . . . . . . . . . . . . . . . . . . . . . . . . . . . . . . . . . . . . a ",
"2 . . . . . s p # # : # : : : : # : # : # # # # # # & . . . . . . . . . . . . . . . . . . . . . . . . . . . . . . . . . . . . a ",
"q . 2 2 . . . t + @ + @ @ @ @ @ @ @ @ @ @ @ @ : # # u . . . . . . . . . . . . . . . . . . . . . . . . . . . . . . . . . . . . a ",
"2 . 2 s u . . p + + @ + @ + @ @ @ @ @ @ @ @ @ + # # u & . & . & & & & . o o o o o o o . o . o . o o o . o . o . o . o o o o d f ",
"2 . . X X . . p : + + + + + + + + + + + + + + : # # ; 3 % g % 3 3 3 h % 3 3 g g h h j % k % l % h j l % l z l z l z l l l l l ; ",
"x . . . . . . $ # : + + + + + + + + + + + + : : # # # # # # # # # # # # # # # # # # # # # # # # # # # # # # # # # # # # # # # c ",
"2 X X . . . . $ + @ @ @ @ @ @ @ @ @ @ @ @ @ @ @ @ @ # # # # # # # # # # v # # # v # # # v # # # v b # v v v v v v v # v v v v n ",
"m . X X . . . $ + + @ + @ @ @ @ @ @ @ @ @ @ @ @ @ @ # : + : : : + : # : + : : w + : # w + : : w + : # w + : : w + : # w + : : M ",
"2 . . . X . N $ # : : : + : + + + + : + + + : + : : # @ @ + : @ @ : # @ @ + : @ @ : # @ @ + : @ @ : # @ @ + : @ @ : # @ @ + w B ",
"m . . . . X . $ # # : # : : : : # : # : # : # : # # # @ @ + + @ @ : # @ @ + + @ @ : # @ @ + + @ @ : # @ @ + + @ @ : # @ @ + + B ",
"m . 2 2 . . X $ + @ + @ @ @ @ @ @ @ @ @ @ @ @ @ @ @ v @ @ + + @ @ : v @ @ + + @ @ : v @ @ + + @ @ : v @ @ + + @ @ : v @ @ + + B ",
"m . 2 X p . . u + + @ + @ @ @ @ @ @ @ @ @ @ @ @ @ @ : @ @ + + @ @ + : @ @ + + @ @ + : @ @ + + @ @ + : @ @ + + @ @ + : @ @ + + B ",
"m . . X X . . u : + + + + + + + + + + + + + + + + + v @ @ + + @ @ : v @ @ + + @ @ : v @ @ + + @ @ : v @ @ + + @ @ : v @ @ + + V ",
"m . . . . . . u # : + + + + + + + + + + + + + + + + : @ @ + + @ @ + : @ @ + + @ @ + : @ @ + + @ @ + : @ @ + + @ @ + : @ @ + + V ",
"m . . . . . . u + @ @ @ @ @ @ @ @ @ @ @ @ @ @ @ @ @ v @ @ + + @ @ + v @ @ + + @ @ + v @ @ + + @ @ + v @ @ + + @ @ + v @ @ + + V ",
"2 . . . . X . p + + @ + @ @ @ @ @ @ @ @ @ @ @ @ @ @ : @ @ + + @ @ + : @ @ + + @ @ + : @ @ + + @ @ + : @ @ + + @ @ + : @ @ + + V ",
"m . . . . . X p # : : : + : + + + + : + + + : + : : : @ @ + + @ @ + : @ @ + + @ @ + : @ @ + + @ @ + : @ @ + + @ @ + : @ C + + V ",
"2 . . . . . . t # # : # : : : : # : # : # : # : # # : @ + + + @ @ : : @ @ + + @ @ : : @ + + + @ @ : : @ @ + + @ @ : : @ + + + V ",
"m . 2 2 . . . p + @ + @ @ @ @ @ @ @ @ @ @ @ @ @ @ @ : @ @ + + @ @ + : @ @ + + @ @ + : @ @ + + @ @ + : @ @ + + @ @ + : @ Z + + V ",
"2 . 2 X p . . p + + @ + @ + @ @ @ @ @ @ @ @ @ @ @ @ b @ + + + @ + : v @ + + + @ + : v @ + + + @ + : v @ + + + @ + : v Z + + + V ",
"2 . . X X . . p : + + + + + + + + + + + + + + + + + : + @ + + @ @ : : + @ + + @ @ : : + @ + + @ @ : : + @ + + @ Z : A S Z + + D ",
"2 X . . . . . p # : + + + + + + + + + + + + + + + + # @ + + : @ + : # @ + + : @ + F # @ + + : @ + A # @ + + : @ + A # @ + + A D ",
"2 . X . . . . t + @ @ @ @ @ @ @ @ @ @ @ @ @ @ @ @ @ G H H w * H J K * L L P I L L I I U U Y I U U c c T T R E W W I E W W R c Q ",
"2 X . X . . . p p t p p p p t p t ! t u t u t t t t t t u t u t $ t $ $ $ $ $ $ $ $ $ $ $ $ $ $ 6 $ ; $ $ $ $ $ ; ~ $ $ $ 6 ~ ! ",
"m . . . . . . . X . . . . . . . . . . . . . . . . X . . . . . . . . . . . . . X . X . . . . . . X . X . . . . . X . . . . . . o ",
"2 X . . . . . X . . . . . . . . . . . . . . . X X . . & . . . . . . . o . . . . X . . o . . . . . X . o . . . X . . . o . . . o ",
"2 . . p X . . . . . . ! X . . . . . . $ X . . X . . . $ X . . . . . ^ $ X . . X . . 1 6 X . . . X . 1 ; X . . . . . 1 ; X . . o ",
"2 . 2 X X . . . . . 2 X X . . . . . 2 X X . X . X . 2 X X . . . . . 2 X X . . . . . 2 X X . . X . . 2 / X . . . . . 2 ( X . ) X ",
"2 . 2 2 . . . . . . 2 2 . . . . . . 2 2 . . . X . . 2 4 . . . . . .     . . . . . .     . . X X . .     . . . . . .     . . N . ",
"2 . . . . . . . . . . . . . . . . . ) . 1 . _ . % . % % % % 1 % 1 1 1 1 X 1 1 1 1 1 % 1 1 % X % 1 % % % ` ` ` 1 ` 1 ` 1 1 ( 1 ( ",
"2 m m m < < < ' < ' < ] ] ] ] ] ] ] [ ] { ] } ] } ] } M M M | M | |  . . . . . ... .X.o.o.X.o.X.o.O.O.O.O.O.O.+.O.@.#.@.@.@.@.@."
};
