/* XPM */
static char *humanv21673968356[] = {
/* columns rows colors chars-per-pixel */
"64 64 158 2 ",
"   c None",
".  c #2F2F2E",
"X  c #31312F",
"o  c #343333",
"O  c #3B3633",
"+  c #3C3935",
"@  c #373639",
"#  c #383739",
"$  c #3C3B3B",
"%  c #42362E",
"&  c #4E3A2A",
"*  c #513C29",
"=  c #583F2C",
"-  c #433731",
";  c #443A33",
":  c #483D35",
">  c #403E3C",
",  c #45413F",
"<  c #4C433C",
"1  c #564136",
"2  c #5A4130",
"3  c #53453B",
"4  c #59473C",
"5  c #604A3C",
"6  c #3E3C41",
"7  c #403F44",
"8  c #413E49",
"9  c #424143",
"0  c #484846",
"q  c #4B4B4E",
"w  c #4C4541",
"e  c #544E45",
"r  c #514D49",
"t  c #5C5246",
"y  c #57524C",
"u  c #5E564A",
"i  c #525252",
"p  c #5A595C",
"a  c #614F40",
"s  c #61564C",
"d  c #65594C",
"f  c #6C5A4B",
"g  c #635445",
"h  c #765948",
"j  c #785D4C",
"k  c #775743",
"l  c #655751",
"z  c #72604E",
"x  c #64615F",
"c  c #746454",
"v  c #7F6D58",
"b  c #5F5F61",
"n  c #646364",
"m  c #69696A",
"M  c #716B67",
"N  c #6D6D70",
"B  c #737275",
"V  c #78777C",
"C  c #835D47",
"Z  c #85614C",
"A  c #966C4F",
"S  c #836D5C",
"D  c #8D6955",
"F  c #996E51",
"G  c #926B51",
"H  c #83725D",
"J  c #A57050",
"K  c #AB7352",
"L  c #B07B59",
"P  c #8D786E",
"I  c #977C60",
"U  c #C17F59",
"Y  c #9C866B",
"T  c #91877F",
"R  c #91887F",
"E  c #AF8260",
"W  c #A18A6D",
"Q  c #B28E6B",
"!  c #BE9E7A",
"~  c #C2815B",
"^  c #CA845B",
"/  c #D48A5E",
"(  c #D69266",
")  c #D2996E",
"_  c #DD996B",
"`  c #D49C70",
"'  c #E09061",
"]  c #E59F6F",
"[  c #E89A69",
"{  c #C3A37D",
"}  c #D0A076",
"|  c #EBA376",
" . c #7E7D82",
".. c #838284",
"X. c #86858A",
"o. c #88878B",
"O. c #89898D",
"+. c #948885",
"@. c #948F89",
"#. c #969296",
"$. c #98979D",
"%. c #9C9C9E",
"&. c #A3A1A6",
"*. c #A6A5AC",
"=. c #A8A7AF",
"-. c #BEB7B4",
";. c #B8B8B7",
":. c #B4B3B9",
">. c #BABABD",
",. c #B1B1B4",
"<. c #C49E88",
"1. c #DAB287",
"2. c #DCB68A",
"3. c #C9B092",
"4. c #E2AB87",
"5. c #E1B588",
"6. c #E0B98C",
"7. c #EBBD8C",
"8. c #E4B586",
"9. c #F3B685",
"0. c #EEBA9B",
"q. c #F1BD91",
"w. c #C5BABC",
"e. c #E5B8A1",
"r. c #F9C18D",
"t. c #ECC292",
"y. c #F1C695",
"u. c #F9C591",
"i. c #FECF9A",
"p. c #FFD19C",
"a. c #D9C7BA",
"s. c #ECCCAB",
"d. c #EDCABD",
"f. c #BEBEC2",
"g. c #C6C5C9",
"h. c #C9C8CC",
"j. c #C5C5C5",
"k. c #C8C7D0",
"l. c #CCCBD4",
"z. c #D3D3D3",
"x. c #D5D5DA",
"c. c #D8D7DA",
"v. c #DADADE",
"b. c #E5DBDD",
"n. c #D7D6E1",
"m. c #D8D7E1",
"M. c #DDDCE1",
"N. c #DFDFEA",
"B. c #E0DFE5",
"V. c #E0DFEB",
"C. c #E1E1E7",
"Z. c #E5E4ED",
"A. c #E6E5F1",
"S. c #E8E7F1",
"D. c #EBEBF5",
"F. c #EEEEFA",
"G. c #F0EFFC",
"H. c #F1F0FD",
/* pixels */
"                                                                                                                                ",
"                                                                                                                                ",
"                                                                                                                                ",
"                                                                                                                                ",
"                                                                                                                                ",
"                                                                                                                                ",
"                                                                                                                                ",
"                                                                                                                                ",
"                                                                                                                                ",
"                                                                                                                                ",
"                                                                                                                                ",
"                                                                                                                                ",
"                                                                                                                                ",
"                                                                                                                                ",
"                                                                                                                                ",
"                                                                                                                                ",
"                                                                                                                                ",
"                                                                                                                                ",
"                                                                                                                                ",
"                                                                                                                                ",
"                                                                                                                                ",
"                                                                                                                                ",
"                                                                                                                                ",
"                                                                                                                                ",
"                                                                                                                                ",
"                                                                                                                                ",
"                                                                                                                                ",
"                                                                                                                                ",
"                                                                                                                                ",
"                                                                                                                                ",
"                                                                                                                                ",
"                                                                                                                                ",
"                                                    @ . . . . . . . . .                                                         ",
"                                                    @ . . X X . . o X X                                                         ",
"                                                  $ o X o o O O @ O @ O @                                                       ",
"                                                @ o X X O 4 f c c c c e +                                                       ",
"                                                . X X O < A ) 1.2.2.2.Y e +                                                     ",
"                                              . . X X 3 F ` r.p.p.p.i.1.Y e @ o                                                 ",
"                                              X X X X 5 L } 1.1.t.r.u.t.! u O o                                                 ",
"                                            . X X X X ; 4 g d c E ] | E d $ X X                                                 ",
"                                            . O g I A k , N $.#.P Z Z P #.$.b @                                                 ",
"                                            . + H 8._ J l &.A.m.X., O ..n.A.X.$                                                 ",
"                                            . + H 7.] K l =.H.N.O.+ . o.N.H.O.$                                                 ",
"                                            o o f Q ( ~ D +.*.&.R H v R &.*.B 9                                                 ",
"                                              X O 4 ~ ' ~ j 9 r Y 6.t.Y r 9 q                                                   ",
"                                                o o : k ^ / ) 5.y.p.p.y.{ t 9                                                   ",
"                                                  o o l <.e.0.9.9.q.s.3.Y s                                                     ",
"                                                    # x -.b.d.| [ 4.a.@.y                                                       ",
"                                                    X.,.M.F.w.S h c M O.*.                                                      ",
"                                                  ..>.M.S.S.:.m 0 9 y %.l.                                                      ",
"                                              $  .A.G.Z.c.z.z.j...B ;.z.c.D.O.$                                                 ",
"                                              $  .A.H.S.c.c.M.x.*.%.l.M.N.D.O.$                                                 ",
"                                              $  .A.G.A.v.Z.H.F.C.M.D.H.H.H.O.$                                                 ",
"                                              $  .A.H.A.v.Z.G.F.B.v.D.H.H.F.X.$                                                 ",
"                                              $  .A.H.D.Z.C.S.D.B.M.D.H.F.Z...$                                                 ",
"                                              $ V l.S.F.S.v.M.D.B.B.D.F.Z.h.B $                                                 ",
"                                                b ..g.M.v.x.M.D.B.M.D.S.h.T p 6                                                 ",
"                                                  i :.M.v.M.Z.D.B.M.D.S.f.p 9                                                   ",
"                                                  q *.l.l.l.l.l.f.>.h.z.:.i 9                                                   ",
"                                                  $ x B B V B m m m B B m 9 7                                                   ",
"                                                  o ; < w w 7 9 $ $ < < w O 7                                                   ",
"                                                  + * = 1 ; @   $ - * 2 : O                                                     ",
"                                                  $ ; % - O       $ - % -                                                       ",
"                                                    6 O $ 7       8 @ o @                                                       "
};
