/* XPM */
static char *mur_gauche1673881061[] = {
/* columns rows colors chars-per-pixel */
"64 64 10 1 ",
"  c #382B2F",
". c #464D4F",
"X c #383F40",
"o c #62797E",
"O c #1C1C1B",
"+ c #292A28",
"@ c black",
"# c #2F1C17",
"$ c #141413",
"% c #536265",
/* pixels */
" .X.X..oOO+O+++++++++++O@@o...........................X.XXXXXX.@",
"#....X.o@$$$O$OOOO$O$$$$@@o...........................X.XXXXXX.@",
"#.  ...o@@$@$$$$@$@$@@@@@@o...........................X.XXXXXX.@",
"#. Xo..oO+O++++++++++++$@@o...........................X.XXXXXX.@",
"#..XX..oOO+O+++++++++++O@@o...........................X.XXXXXX.@",
"#......o$OOOOOOOOOOOOOO$@@o...........................X.XXXXXX.@",
"#......o@$OOOOOOOOOOOO$$@@o...........................X.XXXXXX.@",
" ....X.oO++++++++++++++$@@o...........................X.XXXXXX.@",
"#.....XoOO+O+++++++++++O@@o...........................X.XXXXXX.@",
" ......%@$$$O$OOOO$O$$$$@@o...........................X.XXXXXX.@",
"#.  ...o@@$@$$$$@$@$@@@@@@o...........................X.XXXXXX.@",
" . Xo..oO+O++++++++++++$@@o...........................X.XXXXXX.@",
" ..XX..oOO+O+O+++++++++O@@o...........................X.XXXXXX.@",
" ......o$OOOOOOOOOOOOOO$@@o...........................X.XXXXXXX@",
" ......%@$OOOOOOOOOOOO$$@@o...........................X.XXXXXX.@",
" ......oO++++++++++++++$@@o...........................X.XXXXXXX@",
" ......%OO+O+++++++++++O@@o...........................X.XXXXXX.@",
" ......o@$$$O$OOOO$O$$$$@@o...........................X.XXXXXX.@",
"#.  ...%@@$@$$$$@$@$@@@@@@o...........................X.XXXXXX.@",
" . Xo..oO+O++++++++++++$@@o...........................X.XXXXXX.@",
"#..XX..%OO+O+++++++++++O@@o...........................X.XXXXXX.@",
" ......o$OOOOOOOOOOOOOO$@@o...........................X.XXXXXX.@",
"$X.X...%@$OOOOOOOOOOOO$$@@o...........................X.XXXXXX.@",
" .X.XX.%O++++++++++++++$@@o...........................X.XXXXXX.@",
"$..X.X.%OO+O+++++++++++O@@o...........................X.XXXXXX.@",
" .....X%@$$$O$OOOO$O$$$$@@o...........................X.XXXXXX.@",
"$.  ...%@@$@$$$$@$@$@@@@@@o...........................X.XXXXXXX@",
"$. Xo..%O+O++++++++++++$@@o...........................X.XXXXXX.@",
"$..XX..oOO+O+O+++++++++O@@............................X.XXXXXXX@",
"$......%$OOOOOOOOOOOOOO$@@o...........................X.XXXXXX.@",
" ......o@$OOOOOOOOOOOO$$@@............................X.XXXXXXX@",
"$......%O++++++++++++++$@@o...........................X.XXXXXX.@",
" ......oOO+O+++++++++++O@@o...........................X.XXXXXX.@",
" ......%@$$$O$OOOO$O$$$$@@o...........................X.XXXXXX.@",
" .  ...o@@$@$$$$@$@$@@@@@@o...........................X.XXXXXX.@",
" . Xo..oO+O++++++++++++$@@............................X.XXXXXX.@",
" X.XX..oOO+O+++++++++++O@@o...........................X.XXXXXX.@",
" ......o$OOOOOOOOOOOOOO$@@o...........................X.XXXXXX.@",
" ......o@$OOOOOOOOOOOO$$@@o...........................X.XXXXXX.@",
" ...X.XoO++++++++++++++$@@o...........................X.XXXXXX.@",
"#....X.oOO+O+++++++++++O@@o...........%..%X...........X.XXXXXX.@",
" .....Xo@$$$O$OOOO$O$$$$@@o........%..oX.oX...........X.XXXXXX.@",
"#.  ...o@@$@$$$$@$@$@@@@@@o........oX.oX.% ...........X.XXXXXX.@",
" . Xo..oO+O++++++++++++$@@.........o .% ..XX..........X.XXXXXX.@",
" ..XX..oOO+O+O+++++++++O@@o........% ..XX.oX..........X.XXXXXX.@",
"#......o$OOOOOOOOOOOOOO$@@..........XX.oX.% ..........X.XXXXXX.@",
" XX....o@$OOOOOOOOOOOO$$@@o.........%X.% ..XX.........X.XXXXXX.@",
"#.XX...oO++++++++++++++$@@..........o ..XX.oX.........X.XXXXXX.@",
" ...X.XoOO+O+++++++++++O@@o.........% ..oX.% .........X.XXXXXX.@",
"#....X.o@$$$O$OOOO$O$$$$@@o..........XX.% ..XX........X.XXXXXX.@",
"#.  ..Xo@@$@$$$$@$@$@@@@@@o..........oX..XX.% ........X.XXXXXX.@",
"#. Xo..oO+O++++++++++++$@@...........% ..% ..XX.......X.XXXXXX.@",
"#..XX..oOO+O+++++++++++O@@o...........XX..X..%X.......X.XXXXXX.@",
"#......o$OOOOOOOOOOOOOO$@@............%X..%X..%X......X.XXXXXX.@",
"#......o@$OOOOOOOOOOOO$$@@o............X...X....X.....X.XXXXXX.@",
" ....X.oO++++++++++++++$@@.............%X...X.........X.XXXXXX.@",
"#.....XoOO+O+++++++++++O@@o.............X.............X.XXXXXX.@",
" ......%@$$$O$OOOO$O$$$$@@...............X............X.XXXXXX.@",
"#.  ...o@@$@$$$$@$@$@@@@@@o...........................X.XXXXXX.@",
" . Xo..oO+O++++++++++++$@@o...........................X.XXXXXXX@",
" ..XX..oOO+O+O+++++++++O@@o...........................X.XXXXXX.@",
" X.....o$OOOOOOOOOOOOOO$@@o...........................X.XXXXXXX@",
" .X....%@$OOOOOOOOOOOO$$@@o...........................X.XXXXXX.@",
" X.X...oO++++++++++++++$@@o...........................X.XXXXXX.@"
};
