/* XPM */
static char *portal_o__2_1673970455[] = {
/* columns rows colors chars-per-pixel */
"64 64 213 2 ",
"   c None",
".  c #000000",
"X  c #0B131B",
"o  c #0D191C",
"O  c #11141B",
"+  c #1A1A1E",
"@  c #1E1E22",
"#  c #141A27",
"$  c #181E31",
"%  c #0B1A25",
"&  c #1B212C",
"*  c #1F2021",
"=  c #1E2535",
"-  c #222429",
";  c #26262A",
":  c #2E2D34",
">  c #242C3C",
",  c #222738",
"<  c #2F3139",
"1  c #36373D",
"2  c #163649",
"3  c #1D395A",
"4  c #1F2D43",
"5  c #242C41",
"6  c #252E4B",
"7  c #282D43",
"8  c #2D3646",
"9  c #2B344B",
"0  c #2E394A",
"q  c #20324D",
"w  c #3A3C42",
"e  c #323C4D",
"r  c #3B3F4C",
"t  c #343645",
"y  c #2B3555",
"u  c #333B54",
"i  c #333D5A",
"p  c #383E50",
"a  c #2A3463",
"s  c #2E3966",
"d  c #2F3B68",
"f  c #263A6B",
"g  c #323D63",
"h  c #323D69",
"j  c #1E4753",
"k  c #254B4E",
"l  c #3E4149",
"z  c #294659",
"x  c #3D4451",
"c  c #36425B",
"v  c #3B455C",
"b  c #3B495F",
"n  c #374451",
"m  c #1E5272",
"M  c #2A446E",
"N  c #294F68",
"B  c #3B4564",
"V  c #3D4A63",
"C  c #35436C",
"Z  c #39456D",
"A  c #3F4B6A",
"S  c #325B62",
"D  c #284679",
"F  c #2A4776",
"G  c #3A4770",
"H  c #3D4B73",
"J  c #384B76",
"K  c #3D5077",
"L  c #3C527A",
"P  c #335A7F",
"I  c #2F587E",
"U  c #296167",
"Y  c #43444B",
"T  c #4B4B4E",
"R  c #474955",
"E  c #494A54",
"W  c #464D5E",
"Q  c #4B4E5A",
"!  c #424757",
"~  c #514F57",
"^  c #4F535E",
"/  c #52565E",
"(  c #5A585F",
")  c #434E64",
"_  c #424D6A",
"`  c #475165",
"'  c #4C5364",
"]  c #45536C",
"[  c #48556D",
"{  c #515561",
"}  c #5B5C66",
"|  c #585B66",
" . c #424E75",
".. c #424B75",
"X. c #425275",
"o. c #4B5673",
"O. c #4B5B75",
"+. c #44547A",
"@. c #49547A",
"#. c #475B7F",
"$. c #4B5B7D",
"%. c #475876",
"&. c #545E7B",
"*. c #535973",
"=. c #5E616C",
"-. c #4F607C",
";. c #556077",
":. c #63636B",
">. c #6B696E",
",. c #6C6D75",
"<. c #656777",
"1. c #75757D",
"2. c #6F7278",
"3. c #375887",
"4. c #2C5387",
"5. c #2C6796",
"6. c #326699",
"7. c #387298",
"8. c #2F6B92",
"9. c #337BB5",
"0. c #347EB8",
"q. c #3273A8",
"w. c #415682",
"e. c #435A82",
"r. c #4D5E81",
"t. c #415F89",
"y. c #525D82",
"u. c #446285",
"i. c #4E6182",
"p. c #496588",
"a. c #526485",
"s. c #5A6486",
"d. c #556987",
"f. c #556788",
"g. c #5C6689",
"h. c #566989",
"j. c #586B8B",
"k. c #457897",
"l. c #486999",
"z. c #636C8D",
"x. c #677688",
"c. c #777883",
"v. c #657490",
"b. c #697693",
"n. c #6D7D99",
"m. c #767B96",
"M. c #666F90",
"N. c #3783A2",
"B. c #3C91AD",
"V. c #7A818A",
"C. c #7E829C",
"Z. c #4392AB",
"A. c #498AA5",
"S. c #6A85A1",
"D. c #7C89A7",
"F. c #4FA4A5",
"G. c #368CC7",
"H. c #3A9EDC",
"J. c #3993CE",
"K. c #3CA2E1",
"L. c #4CBBCA",
"P. c #54BDCC",
"I. c #44B6DF",
"U. c #46BBE2",
"Y. c #4FD0E1",
"T. c #52D5E5",
"R. c #5FE4E7",
"E. c #7BE6E9",
"W. c #81848A",
"Q. c #898989",
"!. c #84868C",
"~. c #818693",
"^. c #8B8D95",
"/. c #83899A",
"(. c #8E9097",
"). c #8F9399",
"_. c #929499",
"`. c #9D9D9D",
"'. c #868BA3",
"]. c #898FA4",
"[. c #8C92A7",
"{. c #8792AA",
"}. c #989BA6",
"|. c #829EBF",
" X c #999EB1",
".X c #9BA6B0",
"XX c #A5A6AB",
"oX c #A7A9AB",
"OX c #A9A9AC",
"+X c #A3A5A7",
"@X c #ABADB4",
"#X c #A6ABBE",
"$X c #B5B5B5",
"%X c #B8B9BC",
"&X c #AEB1BC",
"*X c #B2B4C4",
"=X c #BCBDC2",
"-X c #BEC1C7",
";X c #C4C4C5",
":X c #C5C5CA",
">X c #CDCDCF",
",X c #C6CAD5",
"<X c #CFD3DC",
"1X c #D5D5D5",
"2X c #DADADB",
"3X c #D6D7D9",
"4X c #DCDEE3",
"5X c #D7EFEF",
"6X c #E2E2E2",
"7X c #E7E7EA",
"8X c #EFEFF0",
"9X c #F4F4F5",
"0X c #FFFFFF",
/* pixels */
"                                                                                                                                ",
"                                                                                                                                ",
"                                                                                                                                ",
"                                                                                                                                ",
"                                                                                                                                ",
"                                                                                                                                ",
"                                                                                                                                ",
"                                                                                                                                ",
"                                                  Y < & - - - - - - - - @ #                                                     ",
"                                                  Y < - - - - - - - - - @ @                                                     ",
"                              W.1.>.>.>.r < = $ > 9 c ` [ o.[ [ [ [ %.] c 6 > = = = t >.>.>.>.                                  ",
"                      ( T E T } | { { { u u y 6 b B H $.h.h.j.j.j.j.d.a.H C V i u 6 u { ' / { ' T E T T                         ",
"                    } / E E E W V c c V g H +.C i.r.K X.d.d.a.a.a.a.f.+. .r.a.+.+.Z g ) V i v ! E E E E R                       ",
"          } E w w t x ` _ V V $.H h G h. . .$.+.H a.X.H y.y.y.y.r.&.&...+.i.r.Z +.H H f.r.C  .$._ V A ] v < w w w w             ",
"        ,.' [ $.O.A K $.+.a C a.+.d h i.a.H G r.G r.f.X...m.:X4X<X#X@...r.i.e.G H K r.a.+.d H r.+.a H r.+.i O.-.$.` w           ",
"      :.W [ $.$.$.+.@.i.@.s h $.r.G a H i.+.H $.K +.r.+...}.$X%X%XXXx.@.r.@.G $.H +.a.#.a G $.r. .a +.f.+.g a.$.$.o.` E         ",
"    | ' ] X.a.s.H $.+.r.r.G a +.r.$.C H i.i.K Z B i i _ b.`.`.`.`.`.^.o.B u y X.H e.f.r.C +.i.e.d s #.$.+.G $.g.$.+.-.W |       ",
"  ~ ^ ] d.H s.s.h i.H +.y.e.s +.i.i.+.$.O.O.A i &.{ Q c.=X$X$X$X$X$X%XW.} { ' o._ ] o.-.+.$.f.@.d H i.+.H $.+.g.@. .f.-.!       ",
"  : l $.d. .@.@.G f.H +.r.a.$.r.$.O.&.-.` Y R =.:X:X;X3X0X0X0X0X0X0X0X4X>X:X=X}./ l W $.$.;.&.r.$.$.f.H G f.$.@.H  .f.a.p       ",
"      > &.a.a.a.a.j.H H $.o.%.%.W r Y >.-X3X3X4X9X9X0X0X0X0X0X0X0X0X0X0X9X0X9X7X2X3X>XoXl 1 ! %.O.O.$.Z H j.f.f.y.a.-.V =.      ",
"      , s.a.f.f.j.j.Z +.*./ / ^.$X;X;X1X8X9X9X0X0X0X0X0X0X0X0X0X0X0X0X0X0X0X0X0X0X9X9X6X;X;X;X}.{ / *.B Z j.h.j.d.a.$.) ,.      ",
"      w  Xv.f.h.j.j.u <.+XOXOX1X8X0X0X0X0X0X0X0X0X0X0X0X0X0X0X0X0X0X0X0X0X0X0X0X0X0X0X0X0X0X0X2XOXOX&X:.v j.j.j.a.j.C.c.c.      ",
"      T 2XD.f.f.j.j.8 !.6X0X0X0X0X0X0X0X0X0X0X0X0X0X0X0X0X0X0X0X0X0X0X0X0X0X0X0X0X0X0X0X0X0X0X0X0X0X0XQ.Y j.j.j.+.b.-XXXW.      ",
"      T 5X{.f.a.j.j.8 !.6X0X0X0X0X0X0X0X0X0X0X0X0X0X0X0X0X0X0X0X0X0X0X0X0X0X0X0X0X0X0X0X0X0X0X0X0X0X0XQ.x j.j.j. .n.5X+XW.      ",
"      k E.A.p.f.j.j.9 !.6X0X0X0X0X0X0X0X0X0X0X0X0X0X0X0X0X0X0X0X0X0X0X0X0X0X0X0X0X0X0X0X0X0X0X0X0X0X0XQ.x j.j.j.H k.E.F.c.      ",
"      k R.A.p.p.j.j.9 !.6X0X0X0X0X0X0X0X0X0X0X0X0X0X0X0X0X0X0X0X0X0X0X0X0X0X0X0X0X0X0X0X0X0X0X0X0X0X0XQ.x j.j.j. .k.R.F.x.      ",
"      j T.A.u.a.j.j.8 !.6X0X0X0X0X0X0X0X0X0X0X0X0X0X0X0X0X0X0X0X0X0X0X0X0X0X0X0X0X0X0X0X0X0X0X0X0X0X0XQ.x j.j.j. .7.Y.B.V.      ",
"      2 U.q.3.a.j.j.8 !.6X0X0X0X0X0X0X0X0X0X0X0X0X0X0X0X0X0X0X0X0X0X0X0X0X0X0X0X0X0X0X0X0X0X0X0X0X0X0X!.x j.j.j.H 6.I.N.V.      ",
"      2 K.q.3.r.j.j.8 !.6X0X0X0X0X0X0X0X0X0X0X0X0X0X0X0X0X0X0X0X0X0X0X0X0X0X0X0X0X0X0X0X0X0X0X0X0X0X0XQ.x j.j.f.4.5.H.5.j.      ",
"      2 J.G.6.L a.j.8 !.6X0X0X0X0X0X0X0X0X0X0X0X0X0X0X0X0X0X0X0X0X0X0X0X0X0X0X0X0X0X0X0X0X0X0X0X0X0X0XQ.x h.f.H 3.B.J.5.2.      ",
"    ^ # D D f a Z $.7 W.6X0X0X0X0X0X0X0X0X0X0X0X0X0X0X0X0X0X0X0X0X0X0X0X0X0X0X0X0X0X0X0X0X0X0X0X0X0X0XQ.r r.+.d f D D 3 /       ",
"1.>.R = a d d d C K > V.6X0X0X0X0X0X0X0X0X0X0X0X0X0X0X0X0X0X0X0X0X0X0X0X0X0X0X0X0X0X0X0X0X0X0X0X0X0X0XQ.t H G h s f i y n Q     ",
":.' v A +.w.+.+.@.+.> W.6X0X0X0X0X0X0X0X0X0X0X0X0X0X0X0X0X0X0X0X0X0X0X0X0X0X0X0X0X0X0X0X0X0X0X0X0X0X0XQ.e +.+.+.+.+.+.] B x r   ",
"1 W $.j.h.j.j.j.j.j.8 !.6X0X0X0X0X0X0X0X0X0X0X0X0X0X0X0X0X0X0X0X0X0X0X0X0X0X0X0X0X0X0X0X0X0X0X0X0X0X0XQ.x j.j.j.j.j.j.h.h.0 O   ",
"w R ] i.f.h.j.j.j.j.8 !.6X0X0X0X0X0X0X0X0X0X0X0X0X0X0X0X0X0X0X0X0X0X0X0X0X0X0X0X0X0X0X0X0X0X0X0X0X0X0XQ.x j.j.j.j.d.d.a.$.8 O   ",
"( w x z.g.f.j.j.j.j.8 !.6X0X0X0X0X0X0X0X0X0X0X0X0X0X0X0X0X0X0X0X0X0X0X0X0X0X0X0X0X0X0X0X0X0X0X0X0X0X0XQ.x j.j.j.j.d.a.M.! < ;   ",
"  : / *X[.j.f.j.j.j.0 !.4X0X0X0X0X0X0X0X0X0X0X0X0X0X0X0X0X0X0X0X0X0X0X0X0X0X0X0X0X0X0X0X0X0X0X0X0X0X0XQ.l j.j.j.j.a.j.*X=.: +   ",
"  - :.>X.Xs.y.j.j.j.8 !.6X0X0X0X0X0X0X0X0X0X0X0X0X0X0X0X0X0X0X0X0X0X0X0X0X0X0X0X0X0X0X0X0X0X0X0X0X0X0XQ.x j.j.j.j.$.s.<X,.* .   ",
"  @ x S.h.$.i.j.j.j.0 !.6X0X0X0X0X0X0X0X0X0X0X0X0X0X0X0X0X0X0X0X0X0X0X0X0X0X0X0X0X0X0X0X0X0X0X0X0X0X0XQ.x j.j.j.j.@.H S.n O .   ",
"  @ S P.Z.u.a.j.h.d.x _.6X0X0X0X0X0X0X0X0X0X0X0X0X0X0X0X0X0X0X0X0X0X0X0X0X0X0X0X0X0X0X0X0X0X0X0X0X0X0X_.^ -.j.j.h.$.P P.U o .   ",
"  @ S L.Z.r.a.h.d.` 1.-X9X0X0X0X0X0X0X0X0X0X0X0X0X0X0X0X0X0X0X0X0X0X0X0X0X0X0X0X0X0X0X0X0X0X0X0X0X0X0X3X!.0 d.j.j.#.3.L.U % .   ",
"  @ z B.7.3.a.h.a.b ).1X0X0X0X0X0X0X0X0X0X0X0X0X0X0X0X0X0X0X0X0X0X0X0X0X0X0X0X0X0X0X0X0X0X0X0X0X0X0X0X0XXX& d.j.j.#.D B.j o .   ",
"  @ z 9.5.w.r.j.a.b ).2X0X0X0X0X0X0X0X0X0X0X0X0X0X0X0X0X0X0X0X0X0X0X0X0X0X0X0X0X0X0X0X0X0X0X0X0X0X0X0X0XOX& d.j.h.@.D 0.j o .   ",
"  - N H.0.t.a.j.a.b _.2X0X0X0X0X0X0X0X0X0X0X0X0X0X0X0X0X0X0X0X0X0X0X0X0X0X0X0X0X0X0X0X0X0X0X0X0X0X0X0X0XOX& d.j.h.e.4.H.m % .   ",
"~ < 5 4.3.y.j.j.a.b _.2X0X0X0X0X0X0X0X0X0X0X0X0X0X0X0X0X0X0X0X0X0X0X0X0X0X0X0X0X0X0X0X0X0X0X0X0X0X0X0X0XOX& d.j.h.f.e.4.3 $ +   ",
"Y l V r.r.f.j.j.a.b _.2X0X0X0X0X0X0X0X0X0X0X0X0X0X0X0X0X0X0X0X0X0X0X0X0X0X0X0X0X0X0X0X0X0X0X0X0X0X0X0X0XOX& d.j.h.f.f.r._ 7 O   ",
"w ! O.j.h.j.j.j.-.b ).2X0X0X0X0X0X0X0X0X0X0X0X0X0X0X0X0X0X0X0X0X0X0X0X0X0X0X0X0X0X0X0X0X0X0X0X0X0X0X0X0XOX& d.j.j.j.j.h.s.9 O   ",
"1 v X.r.r.r.r.r.$.i (.2X0X0X0X0X0X0X0X0X0X0X0X0X0X0X0X0X0X0X0X0X0X0X0X0X0X0X0X0X0X0X0X0X0X0X0X0X0X0X0X0XoX$ $.r.r.$.r.r.$.8 X   ",
"@ 7 g h h C h C g 6 ^.2X0X0X0X0X0X0X0X0X0X0X0X0X0X0X0X0X0X0X0X0X0X0X0X0X0X0X0X0X0X0X0X0X0X0X0X0X0X0X0X0XXX% h h C C h C C 5 #   ",
". 8 r.&.r.r.y.r.O.i ^.2X0X0X0X0X0X0X0X0X0X0X0X0X0X0X0X0X0X0X0X0X0X0X0X0X0X0X0X0X0X0X0X0X0X0X0X0X0X0X0X0XoX@ $.r.$.y.$.r.r.+.! 1 ",
". 0 f.a.r.r.r.f.a.v _.2X0X0X0X0X0X0X0X0X0X0X0X0X0X0X0X0X0X0X0X0X0X0X0X0X0X0X0X0X0X0X0X0X0X0X0X0X0X0X0X0XoX$ a.h.a.r.r.r.f.f.] ; ",
". u f.r.@.+.r.f.a.b (.2X0X0X0X0X0X0X0X0X0X0X0X0X0X0X0X0X0X0X0X0X0X0X0X0X0X0X0X0X0X0X0X0X0X0X0X0X0X0X0X0XoX& d.j.$.+.s.+.f.j.) @ ",
". e f.#.H Z @.a.a.b ).2X0X0X0X0X0X0X0X0X0X0X0X0X0X0X0X0X0X0X0X0X0X0X0X0X0X0X0X0X0X0X0X0X0X0X0X0X0X0X0X0XoX& d.j.....g.C i.h.` @ ",
". e f.$...Z @.f.a.V ).2X0X0X0X0X0X0X0X0X0X0X0X0X0X0X0X0X0X0X0X0X0X0X0X0X0X0X0X0X0X0X0X0X0X0X0X0X0X0X0X0XOX& d.j. ...y.Z i.h.) @ ",
". e h.f.r.r.y.h.a.b _.2X0X0X0X0X0X0X0X0X0X0X0X0X0X0X0X0X0X0X0X0X0X0X0X0X0X0X0X0X0X0X0X0X0X0X0X0X0X0X0X0XoX& f.j.a.r.a.r.d.j.) @ ",
". e h.f.r.$.a.j.a.b _.2X0X0X0X0X0X0X0X0X0X0X0X0X0X0X0X0X0X0X0X0X0X0X0X0X0X0X0X0X0X0X0X0X0X0X0X0X0X0X0X0X@X= d.j.f.r.$.i.h.j.) @ ",
". e h.r.L L e.f.d.]  X4X0X0X0X0X0X0X0X0X0X0X0X0X0X0X0X0X0X0X0X0X0X0X0X0X0X0X0X0X0X0X0X0X0X0X0X0X0X0X0X0X#Xy h.j.@.L 3.%.a.j.V * ",
". e f.#.M M L a.d.X. X4X0X0X0X0X0X0X0X0X0X0X0X0X0X0X0X0X0X0X0X0X0X0X0X0X0X0X0X0X0X0X0X0X0X0X0X0X0X0X0X0X*Xi d.j.K F 3.C -.j.` * ",
". e f.$.M M L f.f.V }.2X0X0X0X0X0X0X0X0X0X0X0X0X0X0X0X0X0X0X0X0X0X0X0X0X0X0X0X0X0X0X0X0X0X0X0X0X0X0X0X0X@X> d.j.X.J P C a.j.` * ",
". e d.f.r.r.y.g.a.b ).2X0X0X0X0X0X0X0X0X0X0X0X0X0X0X0X0X0X0X0X0X0X0X0X0X0X0X0X0X0X0X0X0X0X0X0X0X0X0X0X0XoX& h.j.a.$.-.i.d.j.V * ",
". e h.f.y.r.f.j.a.b W.-X6X6X7X6X6X6X6X6X6X6X6X6X6X6X6X6X6X6X6X6X6X6X6X6X6X6X6X6X6X6X6X6X6X6X6X6X7X7X6X6X_.$ s.j.f.y.r.a.j.j.V * ",
". e h.r.L L e.j.a.V / 1.V.~.[./.W.W.W.V.W.W.W.V.W.V.W.W.W.V.W.W.V.W.W.W.W.V.W.W.W.W.V.W.W.V.W.~.'./.!.V.| , s.j.r.w.3.w.d.j.` * ",
"@ ` v.f.3.w.a.M.x.&.W ! ` ' $.[ ` W W W W Q Q W W W Q W W W ^ W Q W W W W W Q W W W ^ W W W ^ ` $.o.` W ! ) v.b.y.e.k.r.z.b.;.1 ",
"~.].[.'.D.D.'.[.[./.'.].[.[.[.[.[.[.[.[.[.[.[.[.[.[.[.[.[.[.[.[.[.[.[.[.[.[.[.[.[.[.[.[.[.[.[.[.[.[.[.[.].m.[.[./.D.D.C.].[.^.1."
};
