/* XPM */
static char *portal_c__1_1673970335[] = {
/* columns rows colors chars-per-pixel */
"64 64 214 2 ",
"   c None",
".  c #101318",
"X  c #1A1E25",
"o  c #1B1F29",
"O  c #141F2D",
"+  c #201F22",
"@  c #1F2022",
"#  c #1C222D",
"$  c #1F2431",
"%  c #1C2C3C",
"&  c #192E36",
"*  c #1D343A",
"=  c #22242C",
"-  c #252529",
";  c #212633",
":  c #222833",
">  c #252D3B",
",  c #2A2E3A",
"<  c #2B2E36",
"1  c #25313C",
"2  c #2C323C",
"3  c #253237",
"4  c #343739",
"5  c #383738",
"6  c #2C3343",
"7  c #2F3A4B",
"8  c #2E3549",
"9  c #313743",
"0  c #333943",
"q  c #3E3D41",
"w  c #323A4B",
"e  c #3A3F49",
"r  c #262F5E",
"t  c #2C3552",
"y  c #2A3659",
"u  c #333D51",
"i  c #323D5C",
"p  c #3D3F50",
"a  c #272F46",
"s  c #1F3E63",
"d  c #2B3564",
"f  c #2D3A66",
"g  c #27396A",
"h  c #2C3C6A",
"j  c #273565",
"k  c #323C62",
"l  c #323E6A",
"z  c #3D414B",
"x  c #3E484F",
"c  c #364154",
"v  c #3C4352",
"b  c #36415C",
"n  c #3B475D",
"m  c #3D485E",
"M  c #3E4850",
"N  c #3C535C",
"B  c #2D436F",
"V  c #20476E",
"C  c #354163",
"Z  c #3A4564",
"A  c #3E4B63",
"S  c #36426C",
"D  c #3A466C",
"F  c #3C4A6B",
"G  c #2C4975",
"H  c #3B4670",
"J  c #3D4C73",
"K  c #344976",
"L  c #2F5178",
"P  c #3D547C",
"I  c #3B557A",
"U  c #395366",
"Y  c #444B4F",
"T  c #49494A",
"R  c #43434B",
"E  c #404654",
"W  c #4B4C54",
"Q  c #444B5B",
"!  c #484A59",
"~  c #4D515D",
"^  c #42555D",
"/  c #53565E",
"(  c #57585C",
")  c #424D65",
"_  c #434B69",
"`  c #475266",
"'  c #43526B",
"]  c #4A556E",
"[  c #465A65",
"{  c #535660",
"}  c #525865",
"|  c #5F5D63",
" . c #414E74",
".. c #484F74",
"X. c #435175",
"o. c #4A5A75",
"O. c #45557A",
"+. c #49567B",
"@. c #46597D",
"#. c #4B5C7C",
"$. c #4A5676",
"%. c #515A7E",
"&. c #525778",
"*. c #4F607C",
"=. c #5D6376",
"-. c #5C627A",
";. c #52637E",
":. c #646569",
">. c #63666B",
",. c #666C7A",
"<. c #6F7175",
"1. c #76787B",
"2. c #77777B",
"3. c #2A5585",
"4. c #395886",
"5. c #2E5E92",
"6. c #3A658A",
"7. c #2D6499",
"8. c #3A6B9D",
"9. c #3D789A",
"0. c #327283",
"q. c #2F69A1",
"w. c #3176A7",
"e. c #435B83",
"r. c #4D5D81",
"t. c #525C80",
"y. c #4E6182",
"u. c #42698B",
"i. c #526485",
"p. c #556887",
"a. c #556788",
"s. c #566A89",
"d. c #586B8B",
"f. c #5B6486",
"g. c #5F708D",
"h. c #457B9C",
"j. c #4E718B",
"k. c #686F85",
"l. c #646C8C",
"z. c #646A88",
"x. c #60718F",
"c. c #6D7387",
"v. c #757B85",
"b. c #737783",
"n. c #6B7491",
"m. c #727B96",
"M. c #767D98",
"N. c #3B8F9C",
"B. c #3F8FA9",
"V. c #3585B6",
"C. c #49819E",
"Z. c #7E818C",
"A. c #61829F",
"S. c #7B8295",
"D. c #768399",
"F. c #7C839D",
"G. c #4E92A2",
"H. c #5090AC",
"J. c #6483A4",
"K. c #7F87A0",
"L. c #6289B4",
"P. c #48B3BA",
"I. c #53AEBA",
"U. c #358EC6",
"Y. c #3795CF",
"T. c #3A9CD6",
"R. c #399CD9",
"E. c #3BA3DF",
"W. c #4CB8C9",
"Q. c #48B2CE",
"!. c #4EC5D5",
"~. c #53D0D8",
"^. c #60C0CE",
"/. c #67D3D9",
"(. c #84868A",
"). c #8E8E8E",
"_. c #86888C",
"`. c #8A8C91",
"'. c #888A96",
"]. c #8F949E",
"[. c #92949B",
"{. c #9B9B9C",
"}. c #929395",
"|. c #828AA3",
" X c #969BAC",
".X c #979CB2",
"XX c #9EA1A4",
"oX c #88BEBE",
"OX c #ABACAD",
"+X c #A4A6AB",
"@X c #AFAFB0",
"#X c #A5A7B5",
"$X c #B3B3B4",
"%X c #B6B7BC",
"&X c #AEB1C1",
"*X c #B8B9C4",
"=X c #8FCBD5",
"-X c #BFC1C1",
";X c #9DDFE0",
":X c #C5C5C5",
">X c #C7C8CC",
",X c #C4C6CC",
"<X c #C6C9D3",
"1X c #CFD1D5",
"2X c #D2D2D2",
"3X c #D4D4D8",
"4X c #DBDBDB",
"5X c #D7D8DA",
"6X c #DCDCE1",
"7X c #E2E2E3",
"8X c #E6E6E9",
"9X c #EBEBEC",
"0X c #F2F2F2",
"qX c #FEFEFE",
/* pixels */
"                                                                                                                                ",
"                                                                                                                                ",
"                                                                                                                                ",
"                                                                                                                                ",
"                                                                                                                                ",
"                                                                                                                                ",
"                                                                                                                                ",
"                                                                                                                                ",
"                                                                                                                                ",
"                                                  `.| q q q q q q q q q q (                                                     ",
"                                            - + - W ! E ! Q Q Q Q ! ! ! v e R + + +                                             ",
"                                          > > : 9 8 b ' ;.;.*.#.*.;.#.*.F y 9 6 , , >                                           ",
"                                o o o X $ b J l a.#.O.+.d.d.s.a.p.p.d.a.X.X.r.r.D l t $ o X # #                                 ",
"                        # ; ; 7 A O.X.i.@.X.J J +.a.O.J t.a.r.@.@.#.a.e.O.r.i.O. .D J #.#. .$.Z 1 ; ; # :                       ",
"          z M m m c i F F i i X.X.B l d.y.O.X.@.S y.r.X. .+.|..X XK.P J +.i.y.l O. .O.i.y.l J #.X.i C ' Z t m m m M z           ",
"          ) ] o.o.X.C @.#.l l #.r.H d X.y.X.J r.J O.#.O....X<X6X6X-XK. .+.r.O.J O.O.#.r.J j X.i.#.j S r.X.k o.$.$.] Q           ",
"        v ' r.#.+.t.J @.r.l d  .y.O.h S *.@.I O.+.D X. ... X@X$X$XOX'... ...D r.J @.y.#.j S @.y.J r J r.O.S p.#.@.#.] Y         ",
"      w *.#...H k r.J @.a.t.j l @.#.S D r.y.X.f +.C i A } T T T T T W ] _ i k #.D @.i.#.l J r.O.f h i.i.J J r.S k  .*.] M       ",
"      ] a.r.l.l.H i.#.O.r.y.S H #.s.i.i.$.A u t z.( ( (.4X0X0X0X0X0X0X:X2.( ( t.t c A #.i.i.p.@.D J i.J J r.r.%.%.%.i.i.A       ",
"      v i.i.i.t.O.a.r.O.r.i.y.e.F u w Q S.].`.[.2X2X2X7X0X  7X6X6X7X  0X4X2X1X>X].`.].S.w w b X.r.y.p.J X.t.a.#.+.r.i.#.E       ",
"      <  .i.i.y.y.d.r. .C u w ` c.'.(.}.>X5X3X4X                            qX0X6X5X4X:X_.(.'.k.n 7 u f J i.s.y.*.i.#.b e       ",
"      < k.f.i.s.d.d.@.$.-.>.:.(.%X4X4X7X0XqXqXqX                              qXqXqXqX9X4X4X4X$X1.:.,.) _ i.d.s.s.i.f.,.R       ",
"      5 <XK.i.a.d.d.' v.:XqXqX0X9X7X9X0X                                              8X0X8X9X0X0XqXqX).} *.d.d.y.i.F.-XW       ",
"      5 7X<XF.#.s.s.' b.:XqX8X8X                                                                8X8XqX).} #.d.d. .|.2X:XW       ",
"      4 ;X=XJ.t.g.d.X.v.:XqX                                                                        qX).} *.d.d. .J.=XoXT       ",
"      3 /.^.h.t.d.d.' v.:XqX                                                                        qX).} *.d.d.X.C./.W.Y       ",
"      3 ~.W.h.e.d.d.' v.:XqX                                                                        qX).} #.d.d.J C.!.P.Y       ",
"      3 Q.Q.h.r.d.s.' v.:XqX                                                                        qX).} #.d.d. .9.Q.P.M       ",
"      > T.U.h.r.d.d.' v.:XqX                                                                        qX).{ *.d.d.J 7.Y.V.M       ",
"      > T.R.w.e.i.d.' v.:XqX                                                                        qX).{ ;.p.y.6.V.E.V.v       ",
"      : 7.q.3.B J p.' v.:XqX                                                                        qX).{ #.i.S L 5.7.3.z       ",
"    < # h h g j f O.b c.:XqX                                                                        qX).` J J d d g g y < W     ",
"    0 % k l l l l l t ,.:XqX                                                                        qX).Q y S l l l l y : !     ",
"    ' f.d.d.d.d.d.d.' v.:XqX                                                                        qX).{ #.s.d.d.d.d.d.d.7     ",
"    ' d.d.d.d.d.d.d.' v.:XqX                                                                        qX).} *.d.d.d.d.d.d.d.7     ",
"    a H X.i.d.d.d.d.' v.:XqX                                                                        qX).} *.d.d.d.d.y.J D $     ",
"    0 n.M.i.i.d.d.d.' v.:XqX                                                                        qX).} #.d.d.d.y.f.F.=.=     ",
"    :.>X1Xd.O.d.d.d.' v.:XqX                                                                        qX).{ ;.d.d.s.X.l.8X+Xq     ",
"    (  X#Xi.O.d.d.d.' v.:XqX                                                                        qX).} #.d.d.d. .;.&X(.2     ",
"    ~ G.H.P O.d.d.d.' v.:XqX                                                                        qX).} *.d.d.d.X.I I.u.*     ",
"    U P.W.6.O.p.p.;.[ [.7XqX                                                                        qX:X1.` s.d.d. .6.~.N.*     ",
"    N N.B.I $.d.i.*.} +X0XqX                                                                        qX0X}.c s.d.d.X.3.H.0.&     ",
"    v G 3.G O.d.p.o./ @XqX                                                                            qX{.z d.d.d.X.h 3.s #     ",
"    U U.Y.4.@.d.p.o./ @XqX                                                                            qX{.0 s.s.s.X.5.E.w.*     ",
"    * 3.5.4.i.d.d.o./ @XqX                                                                            qX{.z p.d.d.y.4.7.V 1     ",
"    u P e.r.a.d.p.$./ @XqX                                                                            qX{.0 s.d.d.i.y.e.L 6     ",
"    A i.i.d.d.d.s.$.{ OXqX                                                                            qX{.z d.d.d.d.d.i.i.8     ",
"    _ i.i.i.i.a.i.] / $XqX                                                                            qX{.0 i.p.i.i.i.i.i.8     ",
"  u k +.O.+.O.O.O.Z ~ @XqX                                                                            qX{.9 O.+.O.+.O.@.O.a o   ",
"z m  .@.@.+.+.@.O.Z ~ @XqX                                                                            qX{.9 O.@.O.O.@.@.@.F v R ",
"2 m i.i.t.i.i.y.t.X./ @XqX                                                                            qX{.0 y.i.i.i.i.t.i.i.u = ",
"$ n p.i.X.e.r.i.d.$./ @XqX                                                                            qX{.e d.s.r.#.+.O.a.d.u . ",
"$ n s.y.S  .+.r.p.o.{ @XqX                                                                            qX{.e d.d. ...$.h i.d.u . ",
"$ n d.i.J l.l.r.p.$./ @XqX                                                                            qX{.e d.d. .l.M.h i.d.u . ",
"$ n s.p.+.+.r.i.d.o./ @XqX                                                                            qX{.e s.d.r.r.#.O.p.d.c . ",
"$ n d.p.i.i.a.d.p.o./ $XqX                                                                            qX{.e s.s.a.a.i.i.d.d.u . ",
"$ n d.p.P O.e.a.d.#.=.%XqX                                                                            qX+X) d.d.r.e.O.X.d.d.u . ",
"$ n d.i.f G P r.d.y.z.*XqX                                                                            qX#X..s.d.J K L h i.d.u . ",
"$ m d.i.B 6.u.r.p.*.-.*XqX                                                                            0X#X) d.d.X.6.9.k a.d.u . ",
"$ n d.i.@.@.r.i.p.o.} @XqX                                                                            qX{.e d.d.r.e.#.@.s.d.w . ",
"$ n d.p.t.a.a.d.d.o./ OXqXqX                                                                        qXqX{.0 d.d.a.i.i.i.s.s.u . ",
"$ m d.i.J J e.t.p.$.e :.`.`.F.S.c.1.1.1.1.1.1.1.1.1.1.1.1.1.1.1.1.1.1.1.1.1.1.1.1.1.1.1.1.1.<.b.S.S.`.`.( 6 d.d.r.O.P X.s.s.u . ",
"6 [ g.d.K 4.e.p.g.;.w 2 9 w F D c 4 0 0 0 9 4 0 0 0 0 9 0 9 0 0 0 9 0 4 9 0 9 0 0 9 0 9 9 9 9 u F F 9 9 , u x.x.+.4.P H d.x.Q # ",
"{ -.D.D.d.J.J.n.D.m.z.n.D.D.D.D.D.D.D.D.D.D.D.D.D.D.D.D.D.D.D.D.D.D.D.D.D.D.D.D.D.D.D.D.D.D.D.D.D.D.D.D.x.f.K.M.x.m.L.f.M.D.=.W "
};
