/* XPM */
static char *mur_droit1673881061[] = {
/* columns rows colors chars-per-pixel */
"64 64 10 1 ",
"  c black",
". c #464D4F",
"X c #383F40",
"o c #62797E",
"O c #141413",
"+ c #292A28",
"@ c #1C1C1B",
"# c #382B2F",
"$ c #536265",
"% c #2F1C17",
/* pixels */
" .XXXXXX.X...........................o  O++++++++++++++@o...X.X#",
" .XXXXXX.X...........................o  OO@@@@@@@@@@@@O $....X.#",
" XXXXXXX.X...........................o  O@@@@@@@@@@@@@@Oo.....X#",
" .XXXXXX.X...........................o  @+++++++++@+@+@@o..XX..#",
" XXXXXXX.X...........................o  O++++++++++++@+@o..oX#.#",
" .XXXXXX.X...........................o      O O OOOO O  o...##.%",
" .XXXXXX.X............X...............  OOOO@O@@@@O@OOO $......#",
" .XXXXXX.X.............X.............o  @+++++++++++@+@@oX.....%",
" .XXXXXX.X.........X...X$.............  O++++++++++++++@o.X....#",
" .XXXXXX.X.....X....X...X............o  OO@@@@@@@@@@@@O o......%",
" .XXXXXX.X......X$..X$..X$............  O@@@@@@@@@@@@@@Oo......%",
" .XXXXXX.X.......X$..X..XX...........o  @+++++++++++@+@@o..XX..%",
" .XXXXXX.X.......XX..#$..#$...........  O++++++++++++@+@o..oX#.%",
" .XXXXXX.X........#$.XX..Xo..........o      O O OOOO O  oX..##.%",
" .XXXXXX.X........XX..#$.XX..........o  OOOO@O@@@@O@OOO o.X....%",
" .XXXXXX.X.........#$.Xo..#$.........o  @+++++++++++@+@@oX.X...#",
" .XXXXXX.X.........Xo.XX..#o..........  O++++++++++++++@o...XX.%",
" .XXXXXX.X.........XX..#$.X$.........o  OO@@@@@@@@@@@@O o....XX#",
" .XXXXXX.X..........#$.Xo.XX..........  O@@@@@@@@@@@@@@Oo......%",
" .XXXXXX.X..........Xo.XX..#$........o  @+++++++++@+@+@@o..XX..#",
" .XXXXXX.X..........XX..#$.#o.........  O++++++++++++@+@o..oX#.#",
" .XXXXXX.X...........#$.Xo.Xo........o      O O OOOO O  o...##.%",
" .XXXXXX.X...........Xo.Xo..$........o  OOOO@O@@@@O@OOO oX.....#",
" .XXXXXX.X...........X$..$...........o  @+++++++++++@+@@o.X....%",
" .XXXXXX.X...........................o  O++++++++++++++@oX.X...#",
" .XXXXXX.X...........................o  OO@@@@@@@@@@@@O o......#",
" .XXXXXX.X...........................o  O@@@@@@@@@@@@@@Oo......#",
" .XXXXXX.X...........................o  @+++++++++++@+@@o..XX.X#",
" .XXXXXX.X............................  O++++++++++++@+@o..oX#.#",
" .XXXXXX.X...........................o      O O OOOO O  o...##.#",
" .XXXXXX.X...........................o  OOOO@O@@@@O@OOO $......#",
" .XXXXXX.X...........................o  @+++++++++++@+@@o......#",
" .XXXXXX.X...........................o  O++++++++++++++@$......O",
" XXXXXXX.X............................  OO@@@@@@@@@@@@O o......#",
" .XXXXXX.X...........................o  O@@@@@@@@@@@@@@O$......O",
" XXXXXXX.X............................  @+++++++++@+@+@@o..XX..O",
" .XXXXXX.X...........................o  O++++++++++++@+@$..oX#.O",
" XXXXXXX.X...........................o      O O OOOO O  $...##.O",
" .XXXXXX.X...........................o  OOOO@O@@@@O@OOO $X.....#",
" .XXXXXX.X...........................o  @+++++++++++@+@@$.X.X..O",
" .XXXXXX.X...........................o  O++++++++++++++@$.XX.X.#",
" .XXXXXX.X...........................o  OO@@@@@@@@@@@@O $...X.XO",
" .XXXXXX.X...........................o  O@@@@@@@@@@@@@@Oo......#",
" .XXXXXX.X...........................o  @+++++++++++@+@@$..XX..%",
" .XXXXXX.X...........................o  O++++++++++++@+@o..oX#.#",
" .XXXXXX.X...........................o      O O OOOO O  $...##.%",
" .XXXXXX.X...........................o  OOOO@O@@@@O@OOO o......#",
" .XXXXXX.X...........................o  @+++++++++++@+@@$......#",
" XXXXXXX.X...........................o  O++++++++++++++@o......#",
" .XXXXXX.X...........................o  OO@@@@@@@@@@@@O $......#",
" XXXXXXX.X...........................o  O@@@@@@@@@@@@@@Oo......#",
" .XXXXXX.X...........................o  @+++++++++@+@+@@o..XX..#",
" .XXXXXX.X...........................o  O++++++++++++@+@o..oX#.#",
" .XXXXXX.X...........................o      O O OOOO O  o...##.%",
" .XXXXXX.X...........................o  OOOO@O@@@@O@OOO $......#",
" .XXXXXX.X...........................o  @+++++++++++@+@@oX.....%",
" .XXXXXX.X...........................o  O++++++++++++++@o.X....#",
" .XXXXXX.X...........................o  OO@@@@@@@@@@@@O o......%",
" .XXXXXX.X...........................o  O@@@@@@@@@@@@@@Oo......%",
" .XXXXXX.X...........................o  @+++++++++++@+@@o..XX..%",
" .XXXXXX.X...........................o  O++++++++++++@+@o..oX#.%",
" .XXXXXX.X...........................o      O O OOOO O  o...##.%",
" .XXXXXX.X...........................o  OOOO@O@@@@O@OOO o.X....%",
" .XXXXXX.X...........................o  @+++++++++++@+@@o..X.X.#"
};
