/* XPM */
static char *mur_haut1673881061[] = {
/* columns rows colors chars-per-pixel */
"64 64 10 1 ",
"  c #382B2F",
". c #2F1C17",
"X c #141413",
"o c #383F40",
"O c #464D4F",
"+ c #62797E",
"@ c #536265",
"# c #1C1C1B",
"$ c black",
"% c #292A28",
/* pixels */
"     . . ...... . .  . .        X XXXX X X . .       . . ...... ",
"oOoOOOOOOOOOOOOOOoOOOOOOOOOoOOOOOOOOOOOOOoOOOOOOOOOOOOOOOOOOOOOO",
"OoOO  OOOOOO  OOooOO  OOOOOO  OOOOOO  OOoOOO  OOOOOO  OOOOOO  Oo",
"oOOoo OOOOOoo OOoOOoo OOOOOoo OOOOOoo OoOoOoo OOOOOoo OOOOOoo OO",
"OOOo+OOOOOOo+OOoOOOo+OOOoOOo+OOOOOOo+OOOoOOo+OOOOOOo+OOOOOOo+OOo",
"OOOOOOOOoOOOOOoOOOOOOOOoOOOOOOOOOOOOOOOooOOOOOOOOOOOOOOOoOOOOOoO",
"OOOOOOOoOOOOOoOoOOOOOOoOoOOOOOOOOOOOOOoOOOOOOOOOOOOOOOOoOOOOOOOO",
"+@++++@+++++++++++++++++++++++@+@+@+@@@@@@+@+@+@+@++++@+++++++++",
"#$X##$$##$X##$$##$X##$$##$X##$$##$X##$$##$X##$$##$X##$$##$X##$$#",
"%X##%$X#%X##%$X#%X##%$X#%X##%$X#%X##%$X#%X##%$X#%X##%$X#%X##%$X#",
"%##%#XX%%##%#XX%%##%#XX%%##%#XX%%##%#XX%%##%#XX%%##%#XX%%##%#XX%",
"%###%$X#%###%$X#%###%$X#%###%$X#%###%$X#%###%$X#%###%$X#%###%$X#",
"%##%%X#%%##%%X#%%##%%X#%%##%%X#%%##%%X#%%##%%X#%%##%%X#%%##%%X#%",
"%###%XX%%##%%XX%%###%XX%%##%%XX%%###%XX%%##%%XX%%###%XX%%##%%XX%",
"%##%%X#%%##%%X#%%##%%X#%%##%%X#%%##%%X#%%##%%X#%%##%%X#%%##%%X#%",
"%##%%X#%%##%%X#%%##%%X#%%##%%X#%%##%%X#%%##%%X#%%##%%X#%%##%%X#%",
"%##%%$#%%##%%$#%%##%%$#%%##%%$#%%##%%$#%%##%%$#%%##%%$#%%##%%$#%",
"%##%%X#%%##%%X#%%##%%X#%%##%%X#%%##%%X#%%##%%X#%%##%%X#%%##%%X#%",
"%##%%$X%%##%%$X%%##%%$X%%##%%$X%%##%%$X%%##%%$X%%##%%$X%%##%%$X%",
"%##%%X#%%##%%X#%%##%%X#%%##%%X#%%##%%X#%%##%%X#%%##%%X#%%##%%X#%",
"%##%%$X%%##%%$X%%##%%$X%%##%%$X%%##%%$X%%##%%$X%%##%%$X%%##%%$X%",
"%##%%$X%%##%%$X%%##%%$X%%##%%$X%%##%%$X%%##%%$X%%##%%$X%%##%%$X%",
"%X#%%$X%%X#%%$X%%X#%%$X%%X#%%$X%%X#%%$X%%X#%%$X%%X#%%$X%%X#%%$X%",
"XXX#X$X#XXX#X$X#XXX#X$X#XXX#X$X#XXX#X$X#XXX#X$X#XXX#X$X#XXX#X$X#",
"$$$$$$$$$$$$$$$$$$$$$$$$$$$$$$$$$$$$$$$$$$$$$$$$$$$$$$$$$$$$$$$$",
"$$$$$$$$$$$$$$$$$$$$$$$$$$$$$$$$$$$$$$$$$$$$$$$$$$$$$$$$$$$$$$$$",
"++++++O+O+O+O+++O+O+O+++++++O++++O+O++++++++++++++++++++++++++++",
"OOOOOOOOOOOOOOOOOOOOOOOOOOOOOOOOOOOOOOOOOOOOOOOOOOOOOOOOOOOOOOOO",
"OOOOOOOOOOOOOOOOOOOOOOOOOOOOOOOOOOOOOOOOOOOOOOOOOOOOOOOOOOOOOOOO",
"OOOOOOOOOOOOOOOOOOOOOOOOOOOOOOOOOOOOOOOOOOOOOOOOOOOOOOOOOOOOOOOO",
"OOOOOOOOOOOOOOOOOOOOOOOOOOOOOOOOOOOOOOOOOOOOOOOOOOOOOOOOOOOOOOOO",
"OOOOOOOOOOOOOOOOOOOOOOOOOOOOOOOOOOOOOOOOOOOOOOOOOOOOOOOOOOOOOOOO",
"OOOOOOOOOOOOOOOOOOOOOOOOOOOOOOOOOOOOOOOOOOOOOOOOOOOOOOOOOOOOOOOO",
"OOOOOOOOOOOOOOOOOOOOOOOOOOOOOOOOOOOOOOOOOOOOOOOOOOOOOOOOOOOOOOOO",
"OOOOOOOOOOOOOOOOOOOOOOOOOOOOOOOOOOOOOOOOOOOOOOOOOOOOOOOOOOOOOOOO",
"OOOOOOOOOOOOOOOOOOO@++@OOOOOOOOOOOOOOOOOOOOOOOOOOOOOOOOOOOOOOOOO",
"OOOOOOOOOOOOOOO@+@o  oOOOOOOOOOOOOOOOOOOOOOOOOOOOOOOOOOOOOOOOOOO",
"OOOOOOOOOOOO@+o  ooOOOOOOOOOOOOOOOOOOOOOOOOOOOOOOOOOOOOOOOOOOOOO",
"OOOOOOOOOO@o ooOOOOO@++@OOOOOOOOOOOOOOOOOOOOOOOOOOOOOOOOOOOOOOOO",
"OOOOOOOO@oooOOOOO@+o ooOOOOOOOOOOOOOOOOOOOOOOOOOOOOOOOOOOOOOOOOO",
"OOOOOOOooOOOOO@+o ooOOOOOOOOOOOOOOOOOOOOOOOOOOOOOOOOOOOOOOOOOOOO",
"OOOOOOoOOOOO@o ooOOOO@+@OOOOOOOOOOOOOOOOOOOOOOOOOOOOOOOOOOOOOOOO",
"OOOOOOOOOO@o oOOOO@+o ooOOOOOOOOOOOOOOOOOOOOOOOOOOOOOOOOOOOOOOOO",
"OOOOOOOOOooOOOO@+o ooOOOOOOOOOOOOOOOOOOOOOOOOOOOOOOOOOOOOOOOOOOO",
"OOOOOOOOoOOOO@o ooOOOOOOOOOOOOOOOOOOOOOOOOOOOOOOOOOOOOOOOOOOOOOO",
"OOOOOOOOOOO@o oOOOOOOOOOOOOOOOOOOOOOOOOOOOOOOOOOOOOOOOOOOOOOOOOO",
"OOOOOOOOOO@ooOOOOOOOOOOOOOOOOOOOOOOOOOOOOOOOOOOOOOOOOOOOOOOOOOOO",
"OOOOOOOOOOoOOOOOOOOOOOOOOOOOOOOOOOOOOOOOOOOOOOOOOOOOOOOOOOOOOOOO",
"OOOOOOOOOoOOOOOOOOOOOOOOOOOOOOOOOOOOOOOOOOOOOOOOOOOOOOOOOOOOOOOO",
"OOOOOOOOOOOOOOOOOOOOOOOOOOOOOOOOOOOOOOOOOOOOOOOOOOOOOOOOOOOOOOOO",
"OOOOOOOOOOOOOOOOOOOOOOOOOOOOOOOOOOOOOOOOOOOOOOOOOOOOOOOOOOOOOOOO",
"OOOOOOOOOOOOOOOOOOOOOOOOOOOOOOOOOOOOOOOOOOOOOOOOOOOOOOOOOOOOOOOO",
"OOOOOOOOOOOOOOOOOOOOOOOOOOOOOOOOOOOOOOOOOOOOOOOOOOOOOOOOOOOOOOOO",
"OOOOOOOOOOOOOOOOOOOOOOOOOOOOOOOOOOOOOOOOOOOOOOOOOOOOOOOOOOOOOOOO",
"oooooooooooooooooooooooooooooooooooooooooooooooooooooooooooooooo",
"OOOOOOOOOOOOOOOOOOOOOOOOOOOOOOOOOOOOOOOOOOOOOOOOOOOOOOOOOOOOOOOO",
"oooooooooooooooooooooooooooooooooooooooooooooooooooooooooooooooo",
"oooooooooooooooooooooooooooooooooooooooooooooooooooooooooooooooo",
"oooooooooooooooooooooooooooooooooooooooooooooooooooooooooooooooo",
"oooooooooooooooooooooooooooooooooooooooooooooooooooooooooooooooo",
"oooooooooooooooooooooooooooooooooooooooooooooooooooooooooooooooo",
"oooooooooooooooooooooooooooooooooooooooooooooooooooooooooooooooo",
"OOoOoOOOOOOOOOOOOOOOOOOOOOOOOOOOOoOoOoOOOOOOOOOOoOoOOOOOOOOOOOOO",
"$$$$$$$$$$$$$$$$$$$$$$$$$$$$$$$$$$$$$$$$$$$$$$$$$$$$$$$$$$$$$$$$"
};
