/* XPM */
static char *angle_haut_gauche1673881061[] = {
/* columns rows colors chars-per-pixel */
"64 64 100 2 ",
"   c #382B2F",
".  c #2F1C17",
"X  c #2F1C18",
"o  c #2F1D18",
"O  c #382C2F",
"+  c #151514",
"@  c #382C30",
"#  c #301D18",
"$  c #301D19",
"%  c #464D4F",
"&  c #383F40",
"*  c #464C4E",
"=  c #62797E",
"-  c #384041",
";  c #394041",
":  c #394042",
">  c #62787D",
",  c #61787D",
"<  c #383F41",
"1  c #464D50",
"2  c #464E50",
"3  c #474E50",
"4  c #394142",
"5  c #392C30",
"6  c #536265",
"7  c #61787C",
"8  c #61777C",
"9  c #526164",
"0  c #60777C",
"q  c #1C1C1B",
"w  c black",
"e  c #141413",
"r  c #292A28",
"t  c #3A2D31",
"y  c #62797D",
"u  c #311E19",
"i  c #464D4E",
"p  c #311F1A",
"a  c #171716",
"s  c #383F3F",
"d  c #454C4E",
"f  c #010102",
"g  c #010100",
"h  c #010101",
"j  c #181817",
"k  c #1D1D1C",
"l  c #60777B",
"z  c #3B2E32",
"x  c #020202",
"c  c #1D1D1D",
"v  c #010202",
"b  c #3C2F33",
"n  c #464C4F",
"m  c #60767B",
"M  c #1D1E1D",
"N  c #151615",
"B  c #020303",
"V  c #33201C",
"C  c #131313",
"Z  c #34211C",
"A  c #5F767B",
"S  c #392D31",
"D  c #3D3034",
"F  c #1E1E1D",
"G  c #5F767A",
"H  c #161615",
"J  c #5F757A",
"K  c #393F41",
"L  c #35221D",
"P  c gray1",
"I  c #131312",
"U  c #383E40",
"Y  c #1E1E1E",
"T  c #454C4D",
"R  c #161716",
"E  c #444B4D",
"W  c #030404",
"Q  c #3D3135",
"!  c #1E1F1E",
"~  c #292928",
"^  c #3E3236",
"/  c #536164",
"(  c #36231E",
")  c #383E3F",
"_  c #1C1D1B",
"`  c #282927",
"'  c #474E51",
"]  c #1F201F",
"[  c #2A2B29",
"{  c #2B2C2A",
"}  c #2C2D2B",
"|  c #040404",
" . c #4A5154",
".. c #495052",
"X. c #4A5052",
"o. c #4A5153",
"O. c #4B5254",
"+. c #3D4445",
"@. c #3E4546",
"#. c #4C5354",
/* pixels */
"            .           .   .   . . . . . .   .   X     o   o               O + @ + + + + @ + @ + @ o @ # @ @ @ @ @ @ @ # @ $ @ ",
". % % % % & % & % & % % % % % % % % % % % % % % & % % % % % % % % % & % % % % % % % % * * % % % & % % * * % % % % % % * * % % % ",
". %     % % % % & % %     % % % % % %     % % & & % %     % % % % % %     % % % % % %     % % & % % %     % % % % % % O   % % % ",
". %   & = % % & % % & &   % % % % % & &   % % & % % & -   % % % % % & ; O % % % % % & ; @ % & % & % & ; @ % % % % % & : @ % % % ",
"# % % & & % % % % % & = % % % % % % & = % % & % % % & > % % % & % % & > % % % % % % & , % % % & % % & , % % % % % % & , % % % % ",
"# % % % % % % % % % % % % % % & % % % % % & % % % % % % % % & % % % % % % % % % % % % % % % & & % % % % % % % % % % % % % % % & ",
"# % % % % % % % % % % % % % & % % % % % & % < % % % % % % - % ; 1 2 2 2 2 % 2 % 2 % 2 % % ; % % % 3 % 3 % 3 1 3 2 3 3 3 3 2 4 3 ",
"5 % % % % & % = 6 = = = = 6 = = > > > > , , , , , , = = 6 = = = = 6 = = > > > > , , , , , , , , , , , , 7 , , , 8 9 7 9 0 9 8 9 ",
"# % % % % % & = q w e q q w w q q w e q q w w q q w e q q w w q q w e q q w w q q w e q q w w q q w e q q w w q q w e q q w w q ",
"5 % % % % % % 6 r e q q r w e q r e q q r w e q r e q q r w e q r e q q r w e q r e q q r w e q r e q q r w e q r e q q r w e q ",
"# %     % % % = r q q r q e e r r q q r q e e r r q q r q e e r r q q r q e e r r q q r q e e r r q q r q e e r r q q r q e e r ",
"t %   & y % % = r q q q r w e q r q q q r w e q r q q q r w e q r q q q r w e q r q q q r w e q r q q q r w e q r q q q r w e q ",
"t % % & & % % = r q q r r e q r r q q r r e q r r q q r r e q r r q q r r e q r r q q r r e q r r q q r r e q r r q q r r e q r ",
"t % % % % % % = r q q q r e e r r q q r r e e r r q q q r e e r r q q r r e e r r q q q r e e r r q q r r e e r r q q q r e e r ",
"t % % % % % % 6 r q q r r e q r r q q r r e q r r q q r r e q r r q q r r e q r r q q r r e q r r q q r r e q r r q q r r e q r ",
"t % % % % % % = r q q r r e q r r q q r r e q r r q q r r e q r r q q r r e q r r q q r r e q r r q q r r e q r r q q r r e q r ",
"t % % % % % % 6 r q q r r w q r r q q r r w q r r q q r r w q r r q q r r w q r r q q r r w q r r q q r r w q r r q q r r w q r ",
"t % % % % % % y r q q r r e q r r q q r r e q r r q q r r e q r r q q r r e q r r q q r r e q r r q q r r e q r r q q r r e q r ",
"u i     % % % 6 r q q r r w e r r q q r r w e r r q q r r w e r r q q r r w e r r q q r r w e r r q q r r w e r r q q r r w e r ",
"t %   & , % % > r q q r r e q r r q q r r e q r r q q r r e q r r q q r r e q r r q q r r e q r r q q r r e q r r q q r r e q r ",
"p * % & & % % 6 r q q r r w q r r q q r r w q r r q q r r w e r r q q r r w e r r q q r r w e r r q q r r w e r r q q r r w e r ",
"t % % % % % % > r q q r r e q r r q q r r e q r r q q r r w e r r q q r r w e r r q q r r w e r r q q r r w e r r q q r r w e r ",
"a s % & % % % 6 r q q r r w e r r q q r r w e r r e q r r w e r r e q r r w e r r e q r r w e r r e q r r w e r r e q r r w e r ",
"t % & % & & % 6 r q q r r e q r r q q r r e q r r e e q e w e q e e e q e w e q e e e q e w e q e e e q e w e q e e e q e w e q ",
"a d % & % & % 6 r q q r r w e r r q q r r w e r r w w w w w w w w w w w w w w w w w w w w w w w w w w w w w w w w w w w w w w w ",
"t % % % % % & 6 r q q r r w e r r q q r r w e r r w w w w w w w w w w w w w w w w w w w w w w w w w w w w w w w w w w w w w w w ",
"a d     % % % 6 f w e g e e e e h e h e h w w w w w 8 > > 2 , > > > 2 , 2 , , , , , , , , , , , , , , , , , , , , , , , , , , , ",
"j d O & , 2 % 6 k r q r r r r r r r r r r r r e w w 0 2 % % % % % % % % % % % % % % % % % % % % % % % % % % % % % % % % % % % d ",
"j d % & & % % > k q r q r q r r r r r r r r r q w w d % % % % % % % % % % % % % % % % % % % % % % % % % % % % % % % % % % % % 2 ",
"j d % % % % % 6 + q q q q q q q q q q q q q q e w w l 2 % % % % % % % % % % % % % % % % % % % % % % % % % % % % % % % % % % % d ",
"z * % % % % % > x e q q q q q q q q q q q q e e w w d % % % % % % % % % % % % % % % % % % % % % % % % % % % % % % % % % % % % 2 ",
"j d % % % % % 6 k r r r r r r r r r r r r r r e w w 0 2 % % % % % % % % % % % % % % % % % % % % % % % % % % % % % % % % % % % % ",
"z * % % % % % , c q r q r r r r r r r r r r r q w w 0 2 % % % % % % % % % % % % % % % % % % % % % % % % % % % % % % % % % % % % ",
"z * % % % % % 6 v e e e q e q q q q e q e e e e w w 0 2 % % % % % % % % % % % % % % % % % % % % % % % % % % % % % % % % % % % % ",
"b * @   n % % , x w e h e e e e h e h e h w w w w w m 2 % % % % % % % % % % % % % % % % % % % % % % % % % % % % % % % % % % % % ",
"b * @ & , 3 % , M r q r r r r r r r r r r r r e w w d % % % % % % % % % % % % % % % % % % % % % % % % % % % % % % % % % % % % % ",
"b & % & & % % , M q r q r r r r r r r r r r r q h w 0 3 % % % % % % % % % % % % % % % % % % % % % % % % % % % % % % % % % % % % ",
"b * % % % % % , N q q q q q q q q q q q q q q e w w 0 3 % % % % % % % % % % % % % % % % % % % % % % % % % % % % % % % % % % % % ",
"b * % % % % % , B e q q q q q q q q q q q q e e w w l 3 % % % % % % % % % % % % % % % % % % % % % % % % % % % % % % % % % % % % ",
"b * % % & % & , M r r r r r r r r r r r r r r + w w l 3 % % % % % % % % % % % % % % % % % % % % % % % % % % % % % % % % % % % % ",
"V * % % % & % , M q r q r r r r r r r r r r r q h w m 3 % % % % % % % % % % 6 % % 6 ; % % % % % % % % % % % % % % % % % % % % % ",
"b * % % % % & , B C e e q e q q q q e q e e e e w w m 3 % % % % % % % 6 % % , ; % 7 ; % % % % % % % % % % % % % % % % % % % % % ",
"Z d @   * % % , B w e h e e e e h e h e h w w w w w A 3 % % % % % % % , ; % 7 ; % 9 S d % % % % % % % % % % % % % % % % % % % % ",
"D * @ & 7 3 % , F r q r r r r r r r r r r r r + w w d % % % % % % % % 7 S * 9 S d % 4 & % % % % % % % % % % % % % % % % % % % % ",
"D * % & & % % , F q r q r q r r r r r r r r r q h w G 3 % % % % % % % 9 S d % : & % 8 ; % % % % % % % % % % % % % % % % % % % % ",
"Z d % % % % % , H q q q q q q q q q q q q q q e w w d % % % % % % % % % ; & % 7 ; % 9 S d % % % % % % % % % % % % % % % % % % % ",
"D & & % % % % , B e q q q q q q q q q q q q e e w w J 3 % % % % % % % % 6 K % 9 S d % 4 & % % % % % % % % % % % % % % % % % % % ",
"Z d & & % % % , F r r r r r r r r r r r r r r + w w d % % % % % % % % % 8 S * % 4 & % 8 ; % % % % % % % % % % % % % % % % % % % ",
"D * % % & % & 7 F q r q r r r r r r r r r r r q h w m 3 % % % % % % % % 9 S d % 8 ; % 9 S d % % % % % % % % % % % % % % % % % % ",
"L d % % % & % , P I e e q e q q q q e q e e e e g w A 3 % % % % % % % % % : & % 9 S d % ; & % % % % % % % % % % % % % % % % % % ",
"L d @   * % & 8 P w e h e e e e h e h e h w w w w w J 3 % % % % % % % % % 8 ; % % ; & % 9 S d % % % % % % % % % % % % % % % % % ",
"L d @ U 8 3 % , Y r q r r r r r r r r r r r r + h w d % % % % % % % % % % 9 S d % 9 S * % ; & % % % % % % % % % % % % % % % % % ",
"L T % & & % % , Y q r q r r r r r r r r r r r q h w J 3 % % % % % % % % % % ; & % % ; d % 9 4 d % % % % % % % % % % % % % % % % ",
"L T % % % % % , R q q q q q q q q q q q q q q e h w E % % % % % % % % % % % 9 ; % % 9 ; % % 9 ; d % % % % % % % % % % % % % % % ",
"L T % % % % % , W e q q q q q q q q q q q q e e h w J 3 % % % % % % % % % % % ; d % % ; d % % % ; % % % % % & & & & & & & & & & ",
"Q * % % % & % , ! r r r r r r r r r r r r r r + h w E % % % % % % % % % % % % 9 ; % % % ; % % % % % % % % % & % & & & & & & % % ",
"L T % % % % & 8 ! q ~ q r r r r r r r r r r r q h w J 3 % % % % % % % % % % % % ; d % % % % % % % % % % % % & % & & & & & & % % ",
"^ * % % % % % / B I e e q e q q q q e q e e e e h w E % % % % % % % % % % % % % % ; % % % % % % % % % % % % & % & & & & & & % % ",
"( T @   * % % , W w I h e e e e h e h e h w w w w w J 3 % % % % % % % % % % % % % % % % % % % % % % % % % % & % & & & & & & d d ",
"^ * @ ) 8 3 % , ! r _ ~ r r r r r r r r r r r + h w J 3 % % % % % % % % % % % % % % % % % % % % % % % % % % & % & & & & & & & & ",
"^ * % & & % % , ! q ~ q ~ q ` r r r r r r r r q h w J 3 % % % % % % % % % % % % % % % % % % % % % % % % % % & % & & & & & & d % ",
"^ ) % % % % % 7 R q q q q q q q q q q q q q q e h w J 3 % % % % % % % % % % % % % % % % % % % % % % % % % % & % & & & & & & & & ",
"^ * < i % % % / P I q q q q q q q q q q q q + e h w J ' % % % % % % % % % % % % % % % % % % % % % % % % % % & % & & & & & & % % ",
"^ ) % & 3 3 3 y ] [ [ { { { { { { { { } } } } j | P 8  .............X.X.X.X.X.X.X.X.o.o.o.o.o.o.o.O.O.O.O.O.+.O.+.@.@.@.@.@.#.x "
};
