/* XPM */
static char *angle_haut_droit1673881061[] = {
/* columns rows colors chars-per-pixel */
"64 64 100 2 ",
"   c #3E3236",
".  c #36231E",
"X  c #35221D",
"o  c #3D3135",
"O  c #3D3034",
"+  c #34211C",
"@  c #3C2F33",
"#  c #33201C",
"$  c #3B2E32",
"%  c #181817",
"&  c #171716",
"*  c #3A2D31",
"=  c #311F1A",
"-  c #311E19",
";  c #301D18",
":  c #392C30",
">  c #2F1C17",
",  c #382B2F",
"<  c #383E3F",
"1  c #464C4E",
"2  c #454C4D",
"3  c #454C4E",
"4  c #383F40",
"5  c #464D4F",
"6  c #383F3F",
"7  c #464D4E",
"8  c #383F41",
"9  c #382C30",
"0  c #382C2F",
"q  c #383E40",
"w  c #474E50",
"e  c #61777C",
"r  c #61787C",
"t  c #61787D",
"y  c #464C4F",
"u  c #62797D",
"i  c #62797E",
"p  c #464E50",
"a  c #536164",
"s  c #536265",
"d  c #62787D",
"f  c #1F201F",
"g  c gray1",
"h  c #161716",
"j  c #1E1F1E",
"k  c #030404",
"l  c #020303",
"z  c #1E1E1E",
"x  c #1E1E1D",
"c  c #161615",
"v  c #1D1E1D",
"b  c #151615",
"n  c #020202",
"m  c #010202",
"M  c #1D1D1D",
"N  c #1D1D1C",
"B  c #151514",
"V  c #010102",
"C  c #292A28",
"Z  c #1C1C1B",
"A  c #2A2B29",
"S  c #131312",
"D  c black",
"F  c #141413",
"G  c #131313",
"H  c #292928",
"J  c #1C1D1B",
"K  c #2B2C2A",
"L  c #010101",
"P  c #010100",
"I  c #282927",
"U  c #2C2D2B",
"Y  c #040404",
"T  c #2F1C18",
"R  c #5F757A",
"E  c #444B4D",
"W  c #5F767B",
"Q  c #60767B",
"!  c #5F767A",
"~  c #60777B",
"^  c #60777C",
"/  c #4A5154",
"(  c #474E51",
")  c #384041",
"_  c #495052",
"`  c #2F1D18",
"'  c #394041",
"]  c #464D50",
"[  c #4A5052",
"{  c #526164",
"}  c #392D31",
"|  c #394042",
" . c #393F41",
".. c #394142",
"X. c #4A5153",
"o. c #4B5254",
"O. c #3D4445",
"+. c #3E4546",
"@. c #4C5354",
"#. c #301D19",
/* pixels */
"          .   X o X X X X X X O + O + O O + @ # @ @ @ @ @ @ $ $ % $ % % % & * & * & * = * - * * * * * * * ; : ; : ; ; ; > > > , ",
"< 1 < 1 1 2 1 2 1 2 2 2 3 3 3 1 3 4 3 1 1 3 1 1 1 1 1 4 1 1 1 1 3 1 3 3 3 3 5 3 5 6 5 1 5 7 5 5 5 5 5 5 5 5 5 5 5 5 5 5 5 5 5 , ",
"5 8 5 5 9 9 5 5 5 5 5 5 9 9 5 5 4 4 5 5 9 9 5 5 5 5 5 5 9 9 5 5 5 5 5 5 0 , 5 5 4 5 5 5 , , 5 5 5 5 5 5 , , 5 5 5 5 5 5 , , 5 , ",
"4 7 5 4 < , 5 5 5 5 5 4 q , 5 5 4 5 5 4 4 , 5 5 5 5 5 4 4 , 5 5 5 5 5 4 4 , 5 4 5 4 5 4 4 , 5 5 5 5 5 4 4 , 5 5 5 5 5 4 4 , 5 , ",
"w 5 5 4 e 1 5 5 5 5 5 4 e 1 5 4 5 5 5 4 r 1 5 5 4 5 5 4 t y 5 5 5 5 5 4 t 5 5 5 4 5 5 4 t 5 5 5 5 5 5 4 u 5 5 5 5 5 5 4 i 5 5 , ",
"w 5 5 5 w 5 5 5 4 5 5 5 w 5 4 5 5 5 5 5 w 5 5 4 5 5 5 5 w 5 5 5 5 5 5 5 p 5 5 4 4 5 5 5 5 5 5 5 5 5 5 5 5 5 5 5 4 5 5 5 5 5 4 , ",
"w 5 5 5 5 5 5 4 5 5 5 5 5 4 5 4 5 5 5 5 5 5 4 5 4 5 5 5 5 5 5 5 5 5 5 5 5 5 4 5 5 5 5 5 5 5 5 5 5 5 5 5 5 5 5 4 5 5 5 5 5 5 5 > ",
"u a r t t t a e t t t t t e t r t t t t t t t t t t t t t t s t s d s d s s s s s s d s d s u s i s i i i i s i i 5 5 5 4 5 4 , ",
"f g h j j k l j j k h z z g g x x l c x x l l v v l b v v n m M N n B N N V C C C C C C C C C C C C C C C C C Z s 5 5 5 5 4 5 , ",
"A S Z Z C D S Z C F Z Z C D S Z C F Z Z C D G Z C F Z Z C D F Z C F Z Z C D Z Z Z Z Z Z Z Z Z Z Z Z Z Z Z Z F D i 5 5 5 5 5 4 , ",
"A Z Z H J S F H C Z Z C Z F F C C Z Z C Z F F C C Z Z C Z F F C C Z Z C Z F Z Z Z Z Z Z Z Z Z Z Z Z Z Z Z Z Z F i 5 5 4 4 5 5 , ",
"K Z Z Z H L F Z C Z Z Z C L F Z C Z Z Z C L F Z C Z Z Z C L F Z C Z Z Z C P C C C C C C C C C C C C Z C Z C Z Z i 5 5 i 4 , 5 , ",
"K Z Z H C F Z C C Z Z C C F Z C C Z Z C C F Z C C Z Z C C F Z C C Z Z C C F C C C C C C C C C C C C C C C Z C Z i 5 5 5 , , 5 > ",
"K Z Z Z C F F C C Z Z C C F F C C Z Z Z C F F C C Z Z C C F F C C Z Z Z C F D D F D F D F D F D F F F F D F D D s 5 5 5 5 5 5 , ",
"K Z Z I C F Z C C Z Z C C F Z C C Z Z C C F Z C C Z Z C C F Z C C Z Z C C F F F Z F Z Z Z F Z Z Z Z F Z F F F D i 4 5 5 5 5 5 > ",
"K Z Z C C F Z C C Z Z C C F Z C C Z Z C C F Z C C Z Z C C F Z C C Z Z C C F C C C C C C C C C C C C C C Z C Z Z i 5 4 5 5 5 5 , ",
"K Z Z C C L Z C C Z Z C C L Z C C Z Z C C L Z C C Z Z C C L Z C C Z Z C C L C C C C C C C C C C C C C C C C C Z d 5 5 5 5 5 5 > ",
"K Z Z C C F Z C C Z Z C C F Z C C Z Z C C F Z C C Z Z C C F Z C C Z Z C C F Z Z Z Z Z Z Z Z Z Z Z Z Z Z Z Z F D d 5 5 5 5 5 5 > ",
"K Z Z C C L F C C Z Z C C L F C C Z Z C C L F C C Z Z C C L F C C Z Z C C L Z Z Z Z Z Z Z Z Z Z Z Z Z Z Z Z Z F d 5 5 4 4 5 5 > ",
"U Z Z C C F Z C C Z Z C C F Z C C Z Z C C F Z C C Z Z C C F Z C C Z Z C C F C C C C C C C C C C C C C C Z C Z Z d 5 5 i 4 , 5 > ",
"U Z Z C C L F C C Z Z C C L F C C Z Z C C L F C C Z Z C C L F C C Z Z C C L C C C C C C C C C C C C C C C Z C Z t 4 5 5 , , 5 > ",
"U Z Z C C D F C C Z Z C C D F C C Z Z C C D F C C Z Z C C D F C C Z Z C C D D D F D F D F D F D F F F F D F D D t 5 4 5 5 5 5 > ",
"U B Z C C D F C C F Z C C D F C C F Z C C D F C C F Z C C D F C C F Z C C D F F Z F Z Z Z F Z Z Z Z F Z F F F D t 8 5 4 5 5 5 , ",
"% F F Z B D F Z B F F Z B D F Z B F F Z B D F Z B F F Z F D F Z F F F Z F D C C C C C C C C C C C C C C Z C Z Z t 5 5 5 4 4 5 > ",
"Y L L L L D L L L L L L L D P L D D D L D D D L D D D L D D D D D D D D D D C C C C C C C C C C C C C C C C C Z t 5 5 5 5 4 4 , ",
"g D D D D D D D D D D D D D D D D D D D D D D D D D D D D D D D D D D D D D D D F F Z Z Z Z Z Z Z Z Z Z Z Z F D t 5 5 5 5 5 5 T ",
"e R R R R R E R E R E R 3 R W Q 3 R 3 ! 3 W Q Q ~ ~ ^ ^ 3 Q ^ ^ ^ 3 ~ 3 ^ e D D F Z Z Z Z Z Z Z Z Z Z Z Z Z Z F i 5 5 4 4 5 5 , ",
"/ ( w w w w 5 w 5 w 5 w 5 w w w 5 w 5 w 5 w w w w w w w 5 p p p p 5 p 5 p d D D Z C C C C C C C C C Z C Z C Z Z i 5 5 d ) , 5 , ",
"_ 5 5 5 5 5 5 5 5 5 5 5 5 5 5 5 5 5 5 5 5 5 5 5 5 5 5 5 5 5 5 5 5 5 5 5 5 d D D F C C C C C C C C C C C C Z C Z s 5 5 5 , , 5 ` ",
"_ 5 5 5 5 5 5 5 5 5 5 5 5 5 5 5 5 5 5 5 5 5 5 5 5 5 5 5 5 5 5 5 5 5 5 5 5 p D D D D D D F D F D F F F F D F D D i ) 5 5 5 5 5 , ",
"_ 5 5 5 5 5 5 5 5 5 5 5 5 5 5 5 5 5 5 5 5 5 5 5 5 5 5 5 5 5 5 5 5 5 5 5 5 t D D F F F F Z F Z Z Z Z F Z F F F D i 5 4 5 5 5 5 ` ",
"_ 5 5 5 5 5 5 5 5 5 5 5 5 5 5 5 5 5 5 5 5 5 5 5 5 5 5 5 5 5 5 5 5 5 5 5 5 d D D Z C C C C C C C C C C C Z C Z Z i ' 5 4 5 5 5 , ",
"_ 5 5 5 5 5 5 5 5 5 5 5 5 5 5 5 5 5 5 5 5 5 5 5 5 5 5 5 5 5 5 5 5 5 5 5 5 d D D F C C C C C C C C C C C C C C Z i ] 5 5 5 5 5 , ",
"_ 5 5 5 5 5 5 5 5 5 5 5 5 5 5 5 5 5 5 5 5 5 5 5 5 5 5 5 5 5 5 5 5 5 5 5 5 d D D F F Z Z Z Z Z Z Z Z Z Z Z Z F D s p 5 5 5 5 5 , ",
"[ 5 5 5 5 5 5 5 5 5 5 5 5 5 5 5 5 5 5 5 5 5 5 5 5 5 5 5 5 5 5 5 5 5 5 5 5 p D D F Z Z Z Z Z Z Z Z Z Z Z Z Z Z F i p 5 4 4 5 4 , ",
"[ 5 5 5 5 5 5 5 5 5 5 5 5 5 5 5 5 5 5 { r t s 5 5 5 5 5 5 5 5 5 5 5 5 5 5 t D D Z C C C C C C C C C C C Z C Z Z i p 5 d ' , 5 , ",
"[ 5 5 5 5 5 5 5 5 5 5 5 5 5 5 { e s ' } } ' 5 5 5 5 5 5 5 5 5 5 5 5 5 5 5 p D D F C C C C C C C C C C C C Z C Z d p 5 5 0 , 5 , ",
"[ 5 5 5 5 5 5 5 5 5 5 5 { e | } }  .4 3 1 5 5 5 5 5 5 5 5 5 5 5 5 5 5 5 5 t D D D D D D F D F D F F F F D F D D d 5 5 5 5 5 5 , ",
"[ 5 5 5 5 5 5 5 5 5 { ' } ' 4 3 1 5 5 5 { r t s 5 5 5 5 5 5 5 5 5 5 5 5 5 t D D F F F F Z F Z Z Z Z F Z F F F D d p 5 5 5 5 5 0 ",
"[ 5 5 5 5 5 5 5 { ' ' 4 3 5 5 5 5 { r | } ' ' 5 5 5 5 5 5 5 5 5 5 5 5 5 5 t D D Z C C C C C C C C C C C Z C Z Z d 5 5 5 5 5 5 B ",
"[ 5 5 5 5 5 5 ' ' 3 5 5 5 5 { e ..} ' 4 3 5 5 5 5 5 5 5 5 5 5 5 5 5 5 5 5 t D D F C C C C C C C C C C C C C C Z t p 5 5 5 5 5 9 ",
"[ 5 5 5 5 5 ' 3 5 5 5 5 { ' } ' 4 3 5 5 5 { r s 5 5 5 5 5 5 5 5 5 5 5 5 5 t D D F F Z Z Z Z Z Z Z Z Z Z Z Z F D t 5 5 5 5 5 5 B ",
"X.5 5 5 5 5 5 5 5 5 { ' } 4 3 5 5 5 { e ..} ' ' 5 5 5 5 5 5 5 5 5 5 5 5 5 t D D F Z Z Z Z Z Z Z Z Z Z Z Z Z Z F t p 5 4 4 5 5 B ",
"X.5 5 5 5 5 5 5 5 ' ' 3 1 5 5 { e ..} ' 4 3 5 5 5 5 5 5 5 5 5 5 5 5 5 5 5 t D D Z C C C C C C C C C Z C Z C Z Z t 5 5 t ' , 1 B ",
"X.5 5 5 5 5 5 5 ' 3 5 5 5 { ' } ' 4 3 5 5 5 5 5 5 5 5 5 5 5 5 5 5 5 5 5 5 t D D F C C C C C C C C C C C C Z C Z t 5 5 5 9 , 1 B ",
"X.5 5 5 5 5 5 5 5 5 5 { ' } 4 3 5 5 5 5 5 5 5 5 5 5 5 5 5 5 5 5 5 5 5 5 5 t D D D D D D F D F D F F F F D F D D t ' 5 5 5 5 5 9 ",
"X.5 5 5 5 5 5 5 5 5 { ..4 3 5 5 5 5 5 5 5 5 5 5 5 5 5 5 5 5 5 5 5 5 5 5 5 t D D F F F F Z F Z Z Z Z F Z F F F D t 5 4 5 4 5 5 B ",
"X.5 5 5 5 5 5 5 5 5 ' 3 5 5 5 5 5 5 5 5 5 5 5 5 5 5 5 5 5 5 5 5 5 5 5 5 5 t D D Z C C C C C C C C C C C Z C Z Z t 5 4 4 5 4 5 9 ",
"X.5 5 5 5 5 5 5 5 ' 3 5 5 5 5 5 5 5 5 5 5 5 5 5 5 5 5 5 5 5 5 5 5 5 5 5 5 t D D F C C C C C C C C C C C C C C Z t 5 5 5 4 5 4 B ",
"o.5 5 5 5 5 5 5 5 5 5 5 5 5 5 5 5 5 5 5 5 5 5 5 5 5 5 5 5 5 5 5 5 5 5 5 5 t D D F F Z Z Z Z Z Z Z Z Z Z Z Z F D t w 5 5 5 5 5 9 ",
"o.5 5 5 5 5 5 5 5 5 5 5 5 5 5 5 5 5 5 5 5 5 5 5 5 5 5 5 5 5 5 5 5 5 5 5 5 t D D F Z Z Z Z Z Z Z Z Z Z Z Z Z Z F t 5 5 4 4 5 5 ` ",
"o.5 5 5 5 5 5 5 5 5 5 5 5 5 5 5 5 5 5 5 5 5 5 5 5 5 5 5 5 5 5 5 5 5 5 5 5 t D D Z C C C C C C C C C C C Z C Z Z t w 5 t ' , 1 9 ",
"o.5 5 5 5 5 5 5 5 5 5 5 5 5 5 5 5 5 5 5 5 5 5 5 5 5 5 5 5 5 5 5 5 5 5 5 5 t D D F C C C C C C C C C C C C Z C Z r 5 5 5 9 , 1 ; ",
"o.5 5 5 5 5 5 5 5 5 5 5 5 5 5 5 5 5 5 5 5 5 5 5 5 5 5 5 5 5 5 5 5 5 5 5 5 t D D D D D D F D F D F F F F D F D D t w 5 5 5 5 5 9 ",
"O.4 4 4 4 4 4 4 4 4 5 5 5 5 5 5 5 5 5 5 5 5 5 5 5 5 5 5 5 5 5 5 5 5 5 5 5 t D D F F F F Z F Z Z Z Z F Z F F F D t ] 5 5 5 5 5 9 ",
"o.5 5 5 5 5 5 5 5 4 5 5 5 5 5 5 5 5 5 5 5 5 5 5 5 5 5 5 5 5 5 5 5 5 5 5 5 t D D Z C C C C C C C C C C C Z C Z Z t w 5 5 5 5 5 9 ",
"O.4 4 4 4 4 4 4 4 4 5 5 5 5 5 5 5 5 5 5 5 5 5 5 5 5 5 5 5 5 5 5 5 5 5 5 5 t D D F C C C C C C C C C C C C C C Z e p 5 5 5 5 5 9 ",
"+.4 4 4 4 4 4 4 4 4 5 5 5 5 5 5 5 5 5 5 5 5 5 5 5 5 5 5 5 5 5 5 5 5 5 5 5 t D D F F Z Z Z Z Z Z Z Z Z Z Z Z F D { w 5 5 5 5 5 9 ",
"+.4 4 4 4 4 4 4 4 4 5 5 5 5 5 5 5 5 5 5 5 5 5 5 5 5 5 5 5 5 5 5 5 5 5 5 5 t D D F Z Z Z Z Z Z Z Z Z Z Z Z Z Z F r w 5 4 4 5 5 9 ",
"+.4 4 4 4 4 4 4 4 4 5 5 5 5 5 5 5 5 5 5 5 5 5 5 5 5 5 5 5 5 5 5 5 5 5 5 5 t D D Z C C C C C C C C C Z C Z C Z Z { w 5 t | 0 1 9 ",
"+.4 4 4 4 4 4 4 4 4 5 5 5 5 5 5 5 5 5 5 5 5 5 5 5 5 5 5 5 5 5 5 5 5 5 5 5 t D D F C C C C C C C C C C C C Z C Z ^ w 5 5 9 , 1 ; ",
"+.4 4 4 4 4 4 4 4 4 5 5 5 5 5 5 5 5 5 5 5 5 5 5 5 5 5 5 5 5 5 5 5 5 5 5 5 t D D D D D D F D F D F F F F D F D D { p 5 5 5 5 5 9 ",
"@.5 4 3 4 3 5 5 5 4 5 5 5 5 5 5 5 5 5 5 5 5 5 5 5 5 5 5 5 5 5 5 5 5 5 5 5 t D D F F F F Z F Z Z Z Z F Z F F F D e ..5 5 5 5 5 #.",
"n 5 4 5 4 3 5 5 5 4 5 5 5 5 5 5 5 5 5 5 5 5 5 5 5 5 5 5 5 5 5 5 5 p 3 p 3 t D D Z C C C C C C C C C C C Z C Z Z { w 4 5 5 5 5 9 "
};
